<svg width="1637" height="574" viewBox="0 0 1637 574" fill="none" xmlns="http://www.w3.org/2000/svg">
<path d="M288.908 108.306C277.747 109.505 269.449 111.853 261.442 116.15C254.987 119.597 250.474 123.044 244.117 129.489C234.072 139.632 227.035 151.223 221.26 167.011C218.252 175.254 216.99 180.9 215.389 192.691C213.496 206.68 213.011 215.274 213.496 227.714C214.952 265.485 225.191 298.76 241.545 318.444C245.524 323.241 251.493 328.287 252.707 327.887C254.211 327.438 254.259 326.388 252.949 322.841C250.862 317.046 249.407 310.451 247.66 298.26C245.233 281.373 244.796 278.875 241.545 264.686C235.673 239.055 234.557 232.261 233.781 218.971C233.15 207.779 233.344 204.132 234.751 199.735C236.304 195.039 240.089 187.045 243.68 180.85C245.427 177.902 247.271 174.605 247.805 173.506C249.018 171.157 258.142 160.865 263.674 155.669C271.827 148.025 278.426 142.979 288.326 136.834C298.517 130.539 297.158 130.938 322.441 126.592C343.89 122.894 348.84 121.795 348.84 120.796C348.84 119.547 345.832 117.049 341.901 115.05C337.048 112.602 329.235 110.404 320.694 109.055C314.58 108.106 295.217 107.656 288.908 108.306Z" fill="#5A7D9A"/>
<path d="M354.906 131.788C343.696 132.487 335.932 134.036 323.606 138.033C300.798 145.377 277.456 161.515 261.49 181C247.32 198.287 243.146 213.925 250.037 223.967C253.143 228.464 255.133 228.763 258.481 225.316C259.743 224.017 264.693 219.57 269.449 215.473C300.749 188.394 322.344 175.204 344.23 169.958C349.471 168.709 350.878 168.559 358.546 168.559C366.213 168.609 367.523 168.709 371.891 169.958C378.005 171.657 385.285 175.254 390.574 179.251C395.767 183.198 408.675 196.588 414.013 203.633C420.904 212.776 427.455 223.218 431.968 232.46C437.549 243.752 439.102 249.348 439.442 258.99C439.879 270.581 438.471 277.926 432.308 296.262C430.416 301.807 428.426 308.602 427.892 311.35C427.358 314.048 426.194 318.095 425.32 320.343C423.282 325.339 421.632 330.835 421.632 332.484C421.632 333.633 423.573 336.131 424.495 336.131C424.738 336.131 425.902 334.033 427.116 331.485C428.523 328.537 430.852 324.94 433.618 321.392C438.471 315.197 441.431 310.151 444.586 302.906C450.215 289.866 454.825 275.477 456.96 264.186C459.29 252.145 459.678 247.849 459.678 235.208C459.726 217.822 458.513 209.628 453.757 194.989C451.04 186.546 451.04 186.446 451.186 181.25C451.234 178.352 451.331 174.605 451.38 172.906C451.477 169.159 451.04 168.46 445.362 163.363C436.482 155.37 425.272 148.924 408.044 141.88C392.079 135.285 382.567 132.837 369.076 131.788C365.534 131.538 362.234 131.338 361.7 131.388C361.166 131.388 358.109 131.588 354.906 131.788Z" fill="#5A7D9A"/>
<path d="M336.466 182.099C333.554 182.699 331.37 183.898 331.37 184.747C331.37 186.096 332.826 186.745 335.835 186.745C337.242 186.745 339.717 187.095 341.318 187.495C342.92 187.895 346.948 188.544 350.296 188.994C357.818 189.893 360.487 190.692 365.776 193.64C383.295 203.333 397.805 222.368 405.375 245.8C406.54 249.447 408.093 255.343 408.821 258.94C410.034 264.786 410.131 266.534 410.179 276.427C410.228 288.617 409.791 291.915 407.074 299.909C405.084 305.654 404.841 307.303 405.763 308.102C406.88 309.002 411.49 309.351 413.528 308.702C416.1 307.803 418.866 304.305 420.079 300.408C422.117 294.113 422.36 290.816 422.36 271.181C422.36 253.344 422.263 252.245 421.244 248.448C420.128 244.301 416.731 236.757 413.528 231.361C412.509 229.663 410.907 226.865 409.985 225.166C405.278 216.573 396.106 206.88 386.692 200.485C373.395 191.492 362.525 185.596 356.119 183.798C350.345 182.199 340.057 181.3 336.466 182.099Z" fill="#5A7D9A"/>
<path d="M461.279 192.091C459.969 193.59 460.26 195.389 462.59 200.135C465.21 205.431 467.006 210.927 468.122 216.972C469.286 223.517 469.141 239.905 467.782 252.945C467.2 258.44 466.617 266.534 466.423 270.931C466.084 280.873 466.278 281.773 472.15 293.913C476.226 302.357 476.566 303.356 477.876 309.901C479.429 317.695 480.496 320.993 482.874 324.989C484.718 328.137 486.271 329.336 487.873 328.936C489.959 328.387 505.731 319.644 510.487 316.396C518.445 310.9 524.511 303.306 526.258 296.461C528.782 286.819 524.657 265.935 517.086 249.947C513.253 241.903 510.195 236.707 500.102 220.919C491.561 207.629 488.455 203.732 482.874 199.186C477.439 194.689 473.751 192.791 469.578 192.241C467.636 191.991 465.162 191.642 464.094 191.442C462.541 191.192 461.959 191.342 461.279 192.091Z" fill="#5A7D9A"/>
<path d="M196.56 201.934C194.036 203.333 190.542 205.581 188.795 206.98C185.981 209.128 185.253 210.078 183.409 213.725C181.176 218.121 177.779 226.915 176.372 231.861C173.266 242.902 172.053 255.093 172.005 275.427C171.956 293.214 172.247 296.411 175.207 316.146C177.1 328.537 177.246 330.086 177.246 340.128C177.294 351.519 176.76 355.066 174.188 362.161C172.684 366.108 172.781 366.408 176.081 368.106C180.109 370.205 181.953 372.053 189.911 381.846C206.12 401.831 214.127 409.075 235.139 422.665C267.604 443.748 293.518 457.488 304.583 459.586C308.756 460.386 314.046 459.986 315.696 458.737C318.365 456.738 318.996 454.49 318.898 447.695C318.801 443.399 318.559 441.051 317.976 439.702C317.54 438.652 316.326 435.205 315.259 432.057C310.6 418.118 301.962 405.078 292.354 397.334C290.073 395.535 283.764 391.139 278.329 387.641C265.857 379.598 262.024 376.65 255.958 370.654C239.507 354.317 224.997 330.885 216.213 306.654C210.439 290.716 205.926 270.581 203.984 252.195C202.917 242.003 202.48 219.37 203.208 209.328C203.548 204.882 203.645 200.785 203.499 200.235C203.014 198.736 201.558 199.086 196.56 201.934Z" fill="#5A7D9A"/>
<path d="M327.73 199.935C318.122 201.534 308.999 209.478 302.835 221.619C299.924 227.364 298.274 232.261 296.818 239.855C295.75 245.201 295.702 246.4 295.799 267.683C295.847 289.717 296.042 292.664 297.497 292.664C299.196 292.614 299.39 291.865 299.584 283.621C299.875 273.879 300.506 268.133 301.816 263.587C302.302 261.788 303.272 257.591 303.903 254.344C305.456 246.5 307.882 240.654 311.182 236.907C314.579 232.96 319.966 225.915 325.789 217.722C328.41 214.025 331.661 209.628 332.971 208.029C336.126 204.082 336.514 203.183 335.737 201.234C335.398 200.435 334.767 199.736 334.33 199.736C333.893 199.736 333.117 199.636 332.583 199.536C332.049 199.386 329.866 199.586 327.73 199.935Z" fill="#5A7D9A"/>
<path d="M281.338 218.571C262.897 239.255 261.49 241.104 261.49 244.851C261.49 247.299 262.703 252.245 266.391 264.935C270.662 279.474 272.603 287.668 273.185 293.364C273.525 296.661 273.622 304.905 273.379 316.896C273.136 332.034 273.185 335.531 273.719 336.281C274.592 337.48 281.192 338.629 300.069 340.877C333.651 344.824 361.797 344.075 375.433 338.829C385.478 334.982 392.418 328.787 394.99 321.492C395.572 319.843 395.524 319.544 394.796 318.794C393.922 317.895 393.631 317.945 381.354 320.643C353.693 326.788 341.221 328.087 327.002 326.388C319.917 325.589 316.472 324.69 311.425 322.441C298.468 316.696 290.17 305.504 285.705 287.718C282.745 275.877 281.046 257.141 281.871 245.75C282.842 233.26 284.589 226.065 288.714 217.572C290.606 213.625 290.995 212.476 290.606 211.676C290.315 211.177 289.684 210.727 289.199 210.727C288.714 210.727 285.365 214.024 281.338 218.571Z" fill="#5A7D9A"/>
<path d="M343.259 215.923C330.982 217.022 329.332 218.771 334.815 224.966C339.426 230.112 343.502 231.761 354.76 232.96C364.66 234.009 367.523 234.559 370.532 235.958C375.918 238.456 378.927 242.153 381.111 248.848C383.877 257.341 383.78 267.384 380.771 286.069C379.315 295.112 379.267 295.762 380.043 296.561C380.674 297.211 381.062 297.261 381.742 296.861C384.168 295.262 391.35 281.673 393.922 273.729C398.096 260.739 398.047 247.499 393.825 237.706C391.739 232.86 387.031 226.115 383.731 223.168C377.326 217.372 372.036 215.723 359.273 215.473C354.469 215.373 347.287 215.573 343.259 215.923Z" fill="#5A7D9A"/>
<path d="M350.781 240.454C347.724 241.154 342.046 242.303 338.164 243.002C328.798 244.651 328.022 244.901 322.489 247.799C319.287 249.497 316.909 251.196 314.968 253.145C312.007 256.142 308.222 262.487 307.591 265.485L307.203 267.284L309.096 267.034C310.649 266.834 311.765 266.035 315.016 262.837C321.567 256.492 330.448 252.445 342.289 250.347L347.336 249.497L349.665 250.646C353.887 252.745 358.109 256.242 366.65 264.786C371.357 269.482 375.482 273.179 375.967 273.179C377.86 273.179 378.151 271.98 377.277 267.284C375.045 255.393 372.619 248.998 368.542 244.351C364.175 239.355 359.856 238.406 350.781 240.454Z" fill="#5A7D9A"/>
<path d="M333.554 259.14C327.1 263.287 323.509 275.727 327.197 281.323C328.993 284.021 331.079 283.671 330.982 280.623C330.934 277.726 332.681 273.979 335.301 271.431C341.027 265.935 348.743 264.736 354.276 268.483C356.508 269.932 357.381 269.982 358.061 268.683C359.468 266.035 355.003 262.787 345.783 259.74C340.154 257.891 335.835 257.691 333.554 259.14Z" fill="#5A7D9A"/>
<path d="M316.617 269.782C312.881 273.629 310.697 289.417 312.687 298.11C314.337 305.305 319.044 312.099 324.479 315.047C333.117 319.793 344.521 318.944 351.024 313.099C352.091 312.149 352.722 311.1 352.722 310.351C352.722 309.052 352.916 309.152 346.899 307.903C344.909 307.503 341.512 306.304 339.377 305.205C327.488 299.159 320.888 287.418 320.063 270.931C319.917 267.783 318.898 267.434 316.617 269.782Z" fill="#5A7D9A"/>
<path d="M360.875 269.732C359.807 270.331 359.759 271.83 360.729 273.379C361.603 274.728 361.117 277.776 359.516 281.573C358.254 284.421 353.159 290.366 350.587 291.915C346.316 294.463 342.289 293.963 339.134 290.566C337.581 288.967 336.951 288.617 336.029 288.867C334.573 289.217 334.087 291.465 334.864 294.563C336.32 300.608 344.472 304.355 352.48 302.657C361.117 300.858 366.553 292.714 366.456 281.673C366.407 277.126 365.631 274.228 363.592 271.031C362.331 269.032 362.137 268.933 360.875 269.732Z" fill="#5A7D9A"/>
<path d="M340.93 272.68C337.388 273.779 334.525 277.526 333.991 281.873C333.651 284.371 334.088 284.72 337.679 284.77C341.561 284.82 346.414 280.074 346.414 276.277C346.414 273.429 343.842 271.73 340.93 272.68Z" fill="#5A7D9A"/>
<path d="M466.035 295.512C464.531 295.912 463.124 297.461 462.007 300.059C461.474 301.358 460.455 303.756 459.727 305.404C459.047 307.003 457.64 309.501 456.621 310.9C455.553 312.249 452.059 317.645 448.808 322.891C438.326 339.728 432.211 347.372 419.4 359.913C407.802 371.204 404.162 373.802 398.242 375.051C395.427 375.651 394.165 375.551 385.964 373.852C376.695 371.953 375.919 372.553 381.306 377.249C384.314 379.897 389.507 382.795 395.427 385.143C399.698 386.842 406.2 391.139 412.897 396.784C420.807 403.479 423.767 405.128 428.523 405.478C431.386 405.678 432.163 405.528 434.589 404.329C439.685 401.781 445.945 394.536 454.922 380.797C459.727 373.452 461.182 370.604 463.609 363.61C464.628 360.712 466.715 355.566 468.268 352.119C473.848 339.728 474.139 335.332 470.597 315.747C469.772 311.3 468.947 304.855 468.801 301.507C468.462 295.112 468.365 294.913 466.035 295.512Z" fill="#5A7D9A"/>
<path d="M501.509 328.986C499.325 331.135 494.472 335.731 490.687 339.229C477.536 351.419 474.042 356.715 466.229 376.55C460.066 392.088 454.776 401.281 448.177 408.076C443.227 413.122 439.199 415.77 432.987 418.118C423.233 421.765 419.448 422.265 412.8 420.816C409.937 420.216 401.687 416.469 396.883 413.622C395.961 413.072 390.283 410.074 384.265 407.027C367.329 398.383 364.709 397.634 349.811 397.234C338.601 396.984 321.664 398.083 320.403 399.133C318.898 400.382 320.451 403.679 323.557 405.927C324.819 406.877 325.547 407.826 325.741 408.825C325.886 409.625 326.663 412.572 327.439 415.32C328.216 418.068 329.429 422.615 330.157 425.412C333.602 438.752 340.978 446.996 350.636 448.295C356.022 449.044 383.586 443.349 414.838 435.005C420.03 433.606 431.386 430.609 440.072 428.31C462.347 422.365 469.189 419.817 477.682 414.171C485.98 408.675 492.143 400.582 494.715 391.588C496.122 386.642 496.85 378.598 496.85 366.857C496.85 360.512 497.093 353.318 497.384 350.87C498.354 342.526 501.072 335.981 505.973 330.185C507.089 328.787 508.011 327.338 508.011 326.938C508.011 326.239 506.653 325.139 505.828 325.139C505.634 325.139 503.741 326.888 501.509 328.986Z" fill="#5A7D9A"/>
<path d="M283.328 350.92C279.106 353.268 275.563 353.717 267.556 353.068C261.733 352.618 261.199 352.618 260.616 353.468C259.743 354.667 260.18 356.615 262.218 360.962C267.071 371.154 279.688 379.148 298.808 384.094C319.82 389.54 340.396 390.539 353.839 386.792C360.487 384.943 369.125 379.747 369.95 377.05C370.532 375.151 369.562 374.851 362.768 374.801C357.575 374.751 355.391 374.452 351.267 373.402C339.474 370.305 336.32 369.056 320.694 361.362C314.968 358.564 307.737 355.216 304.631 353.917C298.808 351.519 290.218 349.071 287.841 349.171C287.113 349.171 285.075 349.97 283.328 350.92Z" fill="#5A7D9A"/>
<path d="M721.828 86.5065C717.509 87.8464 715.738 88.7973 710.728 92.6009C703.731 97.8742 699.282 102.931 692.156 113.607C685.98 122.857 680.754 132.582 676.564 142.653C676.003 143.993 674.405 144.685 673.843 143.82C673.368 143.042 673.282 141.227 673.239 130.897C673.239 123.203 673.152 122.338 672.332 120.955C671.295 119.14 669.783 118.751 668.833 120.048C667.71 121.69 665.853 121.128 664.6 118.664C663.866 117.195 663.132 117.325 662.398 119.183C661.75 120.869 661.664 120.912 660.713 120.264C659.418 119.399 658.467 119.875 657.474 121.863C656.999 122.771 656.351 123.678 656.006 123.851C655.487 124.154 655.487 124.586 656.265 126.79C657.388 130.075 657.172 134.052 655.703 137.164C654.796 139.109 654.667 139.93 654.667 145.16C654.667 156.442 653.716 164.006 652.464 162.795C651.211 161.499 649.052 133.274 649.268 120.61C649.311 118.664 649.138 117.065 648.966 117.065C646.806 117.065 646.331 120.004 644.56 143.561C643.826 153.027 643.135 160.937 643.005 161.153C642.832 161.412 642.185 161.585 641.537 161.585C639.809 161.585 639.334 162.32 639.334 165.043C639.334 166.469 639.075 167.809 638.729 168.328C638.125 169.106 638.082 169.106 637.65 167.896C637.39 167.247 636.959 162.363 636.699 157.09C636.483 151.86 636.008 146.154 635.706 144.512C635.361 142.826 635.231 141.313 635.361 141.097C635.706 140.535 636.224 133.404 636.008 132.712C635.879 132.453 635.317 132.193 634.756 132.193C632.985 132.193 632.769 133.663 632.64 146.068C632.553 155.966 632.467 157.695 631.862 158.603C630.955 159.856 630.912 162.666 631.733 164.265C632.078 164.87 632.164 165.562 631.992 165.778C631.819 165.951 631.171 167.852 630.653 170.014L629.616 173.904L629.746 207.142C629.789 226.377 630.005 241.375 630.264 242.801C630.739 245.654 631.776 273.922 632.424 303.357C632.683 314.898 633.071 325.876 633.287 327.778C633.547 329.68 633.719 331.495 633.719 331.841C633.719 332.316 633.892 332.316 634.54 331.711C634.972 331.279 635.447 331.149 635.576 331.322C635.965 331.971 635.317 332.662 634.151 332.792C632.51 333.051 632.51 334.391 634.108 334.953C635.274 335.385 636.311 336.466 636.311 337.244C636.311 337.849 634.756 337.417 633.806 336.509L632.726 335.558L633.028 347.012C633.374 359.634 634.151 369.488 634.756 367.846C634.929 367.284 635.015 363.74 634.929 359.979C634.799 353.885 634.885 353.02 635.576 352.329C636.268 351.637 636.311 351.724 636.311 354.576C636.354 356.262 636.613 358.855 636.959 360.412C637.347 362.097 637.606 365.858 637.606 369.921C637.65 373.595 637.822 378.868 638.038 381.591C638.254 384.314 638.643 390.235 638.902 394.774C639.161 399.269 639.809 406.185 640.327 410.118C641.018 415.478 641.234 419.93 641.321 427.84C641.364 437.176 641.494 438.732 642.228 440.807C642.703 442.146 643.567 443.486 644.215 444.005C645.338 444.826 645.467 444.826 647.67 444.135C650.693 443.184 651.125 443.184 653.069 444.437C654.494 445.388 655.401 445.518 662.441 445.993C666.717 446.253 672.418 446.642 675.096 446.858C683.777 447.549 684.382 446.642 683.216 434.971C682.179 424.425 680.624 394.298 681.056 392.786L681.445 391.403L683.604 393.953C695.179 407.654 709.778 423.344 721.612 434.885C731.071 444.092 733.317 446.08 734.526 446.296C735.649 446.469 738.111 445.864 744.157 443.919C760.915 438.516 767.653 436.484 768.819 436.484C770.719 436.484 773.829 434.712 774.261 433.329C774.866 431.686 774.002 430.649 767.394 425.16C760.397 419.281 755.776 414.829 744.632 403.202C732.194 390.192 714.01 367.414 713.363 363.913C713.103 362.573 713.276 362.27 717.206 358.294C719.452 356.003 722.735 352.113 724.462 349.606C726.19 347.099 728.825 343.511 730.336 341.609C731.848 339.708 734.18 335.99 735.519 333.397C736.858 330.76 739.277 326.784 740.875 324.536C742.473 322.289 745.194 318.01 746.878 315.027C750.938 308.025 763.291 282.826 767.61 272.885C769.424 268.606 772.404 261.776 774.175 257.757C782.597 238.782 790.846 213.193 793.265 198.757C797.973 170.489 797.325 150.65 791.105 132.237C787.996 123.073 784.8 117.411 779.746 112.181C775.73 107.988 774.304 107.037 762.643 100.727C756.942 97.658 749.47 93.5518 746.015 91.5636C737.333 86.6361 735.217 85.8581 729.602 85.6852C725.801 85.5123 724.549 85.642 721.828 86.5065ZM748.779 122.944C749.599 123.765 749.643 123.981 750.765 131.588C753.875 153.502 750.852 177.448 740.788 209.952C735.476 227.155 722.692 258.491 714.356 274.83C711.98 279.455 707.273 288.704 703.904 295.361C700.535 302.017 695.827 310.618 693.452 314.422C691.033 318.269 688.398 322.721 687.578 324.363C685.85 327.821 684.727 328.988 683.345 328.772C681.92 328.599 681.574 326.006 682.093 320.214C682.784 312.693 683.302 306.469 683.82 300.331C685.116 284.944 691.638 246.908 695.957 229.705C700.06 213.28 709 186.352 714.701 173.082C721.569 157.09 731.287 140.708 741.998 127.136C745.971 122.122 747.224 121.344 748.779 122.944ZM662.182 126.79C662.225 129.254 661.707 130.983 661.145 130.421C660.757 130.032 660.757 124.759 661.145 123.549C661.491 122.511 661.491 122.511 661.836 123.333C662.009 123.808 662.182 125.364 662.182 126.79ZM643.221 167.031C643.221 167.377 643.048 167.55 642.789 167.42C642.573 167.291 642.357 166.988 642.357 166.729C642.357 166.513 642.573 166.34 642.789 166.34C643.048 166.34 643.221 166.642 643.221 167.031ZM638.47 175.244C638.038 177.189 637.779 177.448 637.39 176.324C637.131 175.416 637.779 173.688 638.427 173.688C638.643 173.688 638.643 174.379 638.47 175.244ZM638.038 186.049C638.038 187.519 637.866 188.34 637.606 188.167C636.915 187.735 637.175 183.629 637.866 183.629C637.952 183.629 638.038 184.709 638.038 186.049ZM714.658 315.114C715.479 316.281 715.177 317.88 713.838 319.35C712.628 320.689 711.462 322.937 711.462 323.931C711.462 324.623 711.549 324.623 712.326 323.888C712.801 323.456 713.708 322.073 714.313 320.819C715.306 318.788 715.608 318.528 717.379 318.096C718.459 317.794 719.452 317.664 719.539 317.794C719.798 318.053 711.376 335.342 709.605 338.152C707.316 341.782 703.774 346.45 702.565 347.401C700.103 349.346 699.498 348.871 694.143 341.177C690.083 335.299 690.083 335.515 695.352 329.421C696.561 328.081 698.203 327.562 698.721 328.426C698.851 328.643 699.628 328.859 700.405 328.859C702.09 328.859 703.17 327.821 706.409 323.11C708.871 319.479 713.233 314.163 713.708 314.163C713.881 314.163 714.313 314.595 714.658 315.114ZM693.063 347.704C693.365 348.439 692.804 348.482 692.113 347.79C691.81 347.488 691.595 347.142 691.595 346.926C691.595 346.407 692.804 347.012 693.063 347.704ZM709.735 348.568C708.957 349.476 708.698 349.001 709.389 347.92C709.691 347.401 709.994 347.185 710.08 347.445C710.166 347.704 709.994 348.179 709.735 348.568ZM646.158 362.011C646.417 362.443 646.72 363.653 646.892 364.734C647.022 365.814 647.67 369.186 648.231 372.298C648.836 375.367 649.484 381.029 649.7 384.789C649.959 388.593 650.434 392.786 650.823 394.169C651.427 396.33 651.514 398.491 651.341 408.26C651.211 416.818 650.995 420.103 650.564 420.924L650.002 421.961L649.613 420.967C648.966 419.152 648.318 414.354 648.231 410.334C648.145 407.482 647.756 405.191 646.72 401.603C644.862 395.163 644.517 391.532 644.517 378.565C644.474 372.514 644.301 366.679 644.085 365.598C643.61 363.048 643.955 361.276 644.992 361.276C645.424 361.276 645.942 361.622 646.158 362.011ZM658.899 379.214C658.986 381.98 658.899 382.239 658.122 382.239C657.517 382.239 657.258 381.937 657.215 381.159C657.172 379.992 656.697 377.052 656.351 375.929C656.222 375.496 656.524 375.064 657.129 374.805C658.424 374.2 658.813 375.194 658.899 379.214ZM720.403 383.19C722.087 383.968 723.771 386.259 724.203 388.377C724.462 389.674 724.247 389.544 721.223 386.432C717.163 382.326 716.947 381.548 720.403 383.19ZM657.776 417.985C657.69 418.547 657.604 418.201 657.604 417.25C657.56 416.299 657.647 415.867 657.776 416.256C657.863 416.688 657.863 417.466 657.776 417.985Z" fill="#E3E4E8"/>
<path d="M1134.73 99.5598C1130.97 100.597 1120.56 105.957 1115.47 109.544C1111.84 112.095 1108.43 115.163 1100.82 122.857C1085.84 137.899 1078.45 148.056 1066.23 170.1C1062.38 177.059 1061.3 179.35 1056.9 190.328C1045.02 219.936 1041.83 230.699 1041.18 243.277C1040.7 251.36 1042.13 260.566 1044.68 265.926C1046.06 268.822 1049.13 272.323 1051.54 273.749C1053.57 274.916 1077.54 282.956 1083.76 284.555C1086.01 285.117 1089.51 286.111 1091.5 286.716C1096.25 288.142 1099.27 288.142 1103.07 286.673C1106.61 285.333 1110.33 284.209 1113.57 283.474C1116.55 282.783 1122.46 280.578 1132.35 276.342C1151.75 268.044 1155.59 266.617 1163.88 264.672C1169.54 263.332 1174.16 262.727 1175.63 263.116C1177.31 263.548 1178.22 265.061 1179.43 269.6C1180.99 275.608 1181.55 281.789 1180.94 286.413C1179.95 294.107 1173.77 310.229 1167.55 321.381C1163.58 328.426 1160.47 332.965 1150.45 346.105C1144.45 353.971 1140.86 358.207 1136.72 362.357C1133.61 365.425 1130.06 369.229 1128.9 370.785C1126.13 374.416 1114.6 386 1112.87 386.907C1112.14 387.296 1111.19 388.161 1110.76 388.809C1107.95 393.131 1101.86 398.491 1096.16 401.69C1094.56 402.554 1090.76 405.061 1087.74 407.222C1078.84 413.533 1075.26 415.824 1068.52 419.584C1055.99 426.586 1053.36 427.407 1048.78 425.678C1044.98 424.252 1042.21 424.598 1040.27 426.716C1038.37 428.747 1038.28 431.038 1040.06 432.897C1041.61 434.582 1048.3 437.219 1058.07 439.942C1062.34 441.152 1068.82 443.097 1072.45 444.308C1080.96 447.031 1083.89 447.506 1088.95 446.901C1097.76 445.82 1108.47 440.72 1129.33 427.71C1141.51 420.103 1146.87 415.824 1157.19 405.407C1162.33 400.263 1169.71 392.959 1173.6 389.155C1181.07 381.893 1191.35 371.131 1194.5 367.241C1195.54 365.987 1198.56 361.622 1201.24 357.602C1203.92 353.539 1207.03 348.957 1208.2 347.358C1209.36 345.802 1210.61 343.554 1210.96 342.387C1211.31 341.264 1212.3 339.146 1213.12 337.719C1217.4 330.458 1218.99 326.308 1221.58 316.108C1227.29 293.372 1226.81 284.901 1219.12 273.014C1216.75 269.297 1211.22 263.635 1207.38 261.041C1205.91 260.047 1202.8 258.318 1200.46 257.238C1198.18 256.157 1191.31 252.872 1185.26 249.976C1169.37 242.283 1161.9 239.689 1153.52 238.868C1149.28 238.436 1148.2 238.522 1143.41 239.343C1130.93 241.505 1121.64 244.055 1112.27 247.902C1087.78 257.929 1088 257.886 1087.18 256.114C1086.79 255.206 1086.87 253.866 1087.56 249.458C1088.04 246.432 1088.47 242.931 1088.47 241.764C1088.51 239.473 1089.47 235.67 1090.54 233.638C1090.89 232.946 1091.32 230.915 1091.54 229.056C1091.84 226.074 1092.53 224.345 1099.1 209.822C1104.32 198.281 1106.27 193.57 1106.14 192.706C1106.01 191.755 1106.22 191.366 1107.13 190.804C1108.51 189.983 1109.46 188.729 1111.62 184.926C1113.61 181.424 1113.61 180.906 1111.58 181.295C1110.07 181.554 1110.02 181.554 1110.33 180.56C1111.23 177.707 1112.87 175.849 1114.56 175.849C1115.25 175.849 1115.29 176.065 1115.08 177.189C1114.82 178.226 1114.9 178.485 1115.34 178.356C1116.03 178.096 1115.98 177.491 1115.25 174.249L1114.69 172.002L1116.76 168.976C1117.88 167.334 1121.56 162.536 1124.88 158.257C1128.21 154.021 1131.75 149.396 1132.7 147.97C1135.59 143.647 1135.94 143.345 1138.01 143.691C1140.56 144.08 1141.47 143.647 1142.72 141.53C1144.1 139.152 1144.1 138.806 1142.46 139.023C1141.21 139.195 1141.16 139.152 1141.64 138.245C1142.33 136.948 1144.4 136.17 1146.61 136.386C1148.25 136.602 1148.64 136.429 1150.75 134.7C1160.56 126.704 1165.44 124.543 1172.82 124.932C1176.8 125.191 1177.92 124.802 1177.92 123.289C1177.92 122.382 1174.33 117.108 1172.65 115.509C1169.97 112.959 1152.7 103.58 1145.4 100.684C1141.42 99.0844 1137.84 98.7386 1134.73 99.5598ZM1154.16 128.735C1153.65 129.73 1152 130.724 1152 130.032C1152 129.47 1153.6 127.871 1154.16 127.871C1154.47 127.871 1154.47 128.13 1154.16 128.735ZM1146.61 135.219C1146.48 135.435 1146.13 135.651 1145.92 135.651C1145.66 135.651 1145.61 135.435 1145.74 135.219C1145.87 134.96 1146.22 134.787 1146.43 134.787C1146.69 134.787 1146.74 134.96 1146.61 135.219ZM1106.65 189.205C1106.65 189.464 1106.48 189.767 1106.22 189.896C1106.01 190.026 1105.79 189.853 1105.79 189.507C1105.79 189.118 1106.01 188.816 1106.22 188.816C1106.48 188.816 1106.65 188.989 1106.65 189.205Z" fill="#E3E4E8"/>
<path d="M1299.93 107.988C1290.99 108.593 1283.91 111.1 1279.33 115.293C1274.1 120.048 1271.04 130.162 1269.91 146.025C1269.7 149.699 1269.22 155.534 1268.96 158.992C1268.71 162.45 1268.45 170.403 1268.4 176.713C1268.36 183.024 1268.06 191.582 1267.76 195.731C1267.37 201.653 1267.32 206.796 1267.71 219.504C1268.01 228.408 1268.27 238.825 1268.36 242.628C1268.71 262.857 1269.53 286.154 1269.96 288.531C1270.26 290.174 1270.3 293.156 1270.13 296.312C1269.53 306.988 1273.24 363.913 1275.53 379.214C1276 382.282 1277.34 391.446 1278.55 399.528C1281.45 419.368 1283.3 428.272 1286.63 438.429C1290.26 449.581 1294.23 454.292 1301.44 455.935C1303.91 456.54 1311.29 456.453 1337.55 455.546C1347.44 455.2 1350.12 454.941 1354.74 453.99C1361.48 452.606 1367.74 450.445 1372.88 447.809C1381.65 443.314 1398.1 431.038 1403.94 424.684C1405.49 422.999 1407.22 420.794 1414.82 410.766C1418.62 405.709 1420.22 402.424 1420.22 399.399C1420.22 397.67 1420 396.935 1419.31 396.244C1418.45 395.379 1418.1 395.336 1414.43 395.595C1403.24 396.46 1399.36 396.676 1395.73 396.719C1391.19 396.719 1390.07 397.065 1387.52 399.139C1385.88 400.479 1385.41 400.652 1383.59 400.523C1381.65 400.393 1381.56 400.436 1381.13 401.733C1380.91 402.468 1379.92 404.11 1378.93 405.407C1377.98 406.704 1376.29 408.994 1375.21 410.55C1372.67 414.181 1360.1 426.543 1358.93 426.543C1357.55 426.543 1358.54 424.079 1360.7 422.307C1363.81 419.714 1366.58 416.731 1367.48 415.002C1367.91 414.095 1369.08 412.495 1369.99 411.415C1370.94 410.334 1372.62 408.216 1373.7 406.66L1375.73 403.894L1374.78 403.332C1374.22 403.03 1373.49 402.813 1373.1 402.77C1372.19 402.77 1371.02 404.11 1370.59 405.623C1370.42 406.358 1369.94 406.92 1369.43 407.006C1368.56 407.179 1361.39 415.175 1359.23 418.374C1358.33 419.714 1358.15 420.319 1358.5 420.751C1358.76 421.054 1358.89 421.659 1358.76 422.091C1358.63 422.696 1358.5 422.61 1358.28 421.659C1358.02 420.837 1357.63 420.492 1356.99 420.492C1355.82 420.492 1355.56 420.708 1353.53 423.215C1351.46 425.808 1349.56 427.062 1345.33 428.704C1341.65 430.13 1340.62 430.26 1339.97 429.439C1339.32 428.618 1335.26 406.358 1333.79 395.422C1333.1 390.063 1332.02 383.277 1331.42 380.294C1330.77 377.009 1330.17 372.039 1329.95 367.543C1329.69 363.48 1329.22 357.559 1328.87 354.36C1327.57 342.042 1326.28 316.929 1326.84 315.373C1327.53 313.687 1329.09 312.693 1341.18 306.123C1362.52 294.539 1372.1 290.001 1384.24 285.722C1387.82 284.468 1391.58 282.437 1393.96 280.449C1395.04 279.541 1395.3 278.936 1395.51 277.077C1395.77 274.181 1394.99 272.971 1392.49 272.28C1389.08 271.372 1355.43 267.828 1351.98 268.044C1349.47 268.173 1346.92 268.822 1340.96 270.853C1336.69 272.28 1331.68 274.138 1329.78 275.003C1324.55 277.423 1324.12 277.207 1323.47 271.977C1322.87 267.05 1321.79 249.285 1321.27 235.281C1321.05 228.624 1320.66 220.628 1320.4 217.559C1320.19 214.447 1319.8 203.771 1319.58 193.786C1319.37 183.802 1319.11 175.027 1319.02 174.336C1318.72 172.218 1319.5 158.732 1320.23 153.373C1321.35 145.203 1322.95 138.245 1324.38 135.305C1325.98 132.064 1328.27 130.335 1332.07 129.6C1333.4 129.341 1336.34 128.606 1338.67 128.044C1342.47 127.05 1342.95 127.007 1344.07 127.568C1345.07 128.087 1348.56 128.26 1363.21 128.433C1381.65 128.649 1384.33 128.865 1390.76 130.724C1392.84 131.329 1393.14 131.329 1394.13 130.681C1395.34 129.902 1396.03 128.39 1396.03 126.574C1396.03 125.71 1395.56 124.975 1394.43 123.981C1391.15 121.085 1386.27 119.659 1376.38 118.794C1369.47 118.189 1350.55 118.146 1348.65 118.708C1347.49 119.097 1347.05 119.01 1346.15 118.275L1344.98 117.368L1343.34 118.319C1341.27 119.486 1339.67 119.486 1337.55 118.319L1335.82 117.411L1331.81 118.794C1328.14 120.048 1327.75 120.134 1327.14 119.486C1326.75 119.097 1326.15 118.794 1325.76 118.794C1324.42 118.794 1319.24 120.523 1318.72 121.171C1318.25 121.733 1318.46 121.82 1320.06 121.82C1321.05 121.82 1323.04 121.517 1324.42 121.128C1325.8 120.739 1327.06 120.48 1327.19 120.61C1327.7 121.171 1326.62 122.382 1324.72 123.376C1323.04 124.197 1322.61 124.629 1322.61 125.537C1322.61 126.099 1321.83 128.995 1320.88 131.891C1318.98 137.769 1318.2 141.184 1317.04 148.834C1315.91 155.966 1315.74 157.436 1315.05 166.556C1314.36 176.065 1314.06 176.886 1312.54 173.86C1311.64 172.002 1311.51 171.31 1311.68 168.069C1311.9 163.66 1311.42 160.504 1310.51 160.504C1310.08 160.504 1309.78 161.11 1309.61 162.233C1309.05 165.778 1308.44 168.155 1308.01 168.587C1307.36 169.236 1305.76 165.864 1305.76 163.789C1305.76 162.839 1305.63 161.801 1305.5 161.412C1305.03 160.115 1304.47 160.721 1304.47 162.536C1304.47 163.573 1304.17 165.345 1303.82 166.556C1303.43 167.723 1303.17 169.581 1303.21 170.662C1303.26 171.742 1303 175.114 1302.57 178.226C1302.18 181.295 1301.75 187.908 1301.62 192.922C1301.44 199.967 1301.18 202.777 1300.49 205.457C1299.8 208.309 1299.67 209.649 1299.93 213.323L1300.23 217.732L1298.98 218.899C1298.33 219.504 1297.82 220.369 1297.9 220.801C1297.99 221.233 1297.51 223.135 1296.82 224.993C1295.74 228.019 1295.61 228.97 1295.61 233.941C1295.61 237.701 1295.44 239.56 1295.14 239.689C1294.88 239.776 1294.53 239.603 1294.45 239.3C1294.36 238.998 1294.36 225.771 1294.49 209.909C1294.75 183.37 1294.84 181.035 1295.53 180.301C1296.56 179.134 1296.48 179.004 1294.49 178.01L1292.72 177.102L1293.02 178.01C1293.19 178.572 1292.98 179.955 1292.46 181.381C1291.73 183.413 1291.47 185.747 1291.08 194.867C1290.78 200.918 1290.52 207.013 1290.52 208.352C1290.43 210.946 1290.17 211.465 1288.66 211.897C1287.84 212.156 1287.67 211.94 1287.19 209.952C1286.41 206.84 1287.58 174.552 1289.18 153.762C1289.61 148.661 1289.78 143.95 1289.65 143.302C1289.48 142.697 1288.88 141.616 1288.27 140.924C1287.67 140.19 1287.19 139.109 1287.19 138.417C1287.19 136.559 1289.96 126.229 1291.08 123.808C1292.29 121.344 1294.36 119.659 1296.69 119.356C1298.2 119.14 1298.42 119.226 1298.42 119.961C1298.42 120.437 1298.55 120.912 1298.68 121.042C1298.81 121.215 1300.41 120.566 1302.22 119.615C1304.64 118.362 1306.45 117.8 1308.79 117.497C1316.6 116.46 1329.26 115.769 1339.37 115.769H1350.29L1351.37 114.688C1353.36 112.656 1352.58 112.095 1346.75 111.23C1344.29 110.884 1339.45 110.15 1336 109.631C1325.33 108.075 1309.61 107.34 1299.93 107.988ZM1308.31 172.564C1308.35 173.774 1308.35 173.817 1307.49 173.039C1306.5 172.132 1306.37 171.094 1307.15 170.316C1307.79 169.668 1308.27 170.575 1308.31 172.564ZM1307.19 177.016C1307.75 177.362 1307.49 178.312 1306.63 179.09C1306.15 179.523 1305.68 179.782 1305.59 179.696C1305.03 179.09 1304.12 176.756 1304.34 176.54C1304.6 176.324 1306.45 176.627 1307.19 177.016ZM1314.14 179.35C1314.01 179.566 1313.71 179.652 1313.49 179.479C1313.28 179.35 1313.19 179.047 1313.36 178.831C1313.49 178.615 1313.8 178.529 1314.01 178.701C1314.23 178.831 1314.31 179.134 1314.14 179.35ZM1304.9 184.493C1304.9 184.709 1304.73 184.926 1304.47 184.926C1304.25 184.926 1304.04 184.709 1304.04 184.493C1304.04 184.234 1304.25 184.061 1304.47 184.061C1304.73 184.061 1304.9 184.234 1304.9 184.493ZM1281.14 187.822C1282.18 189.118 1282.18 191.495 1281.19 195.256C1280.84 196.596 1280.8 197.806 1281.14 199.492C1281.49 201.394 1281.45 202.085 1280.93 203.122C1280.54 203.814 1279.94 206.84 1279.5 209.865C1278.81 214.793 1278.64 215.398 1277.91 215.398C1277.08 215.398 1277.04 214.922 1276.74 205.457C1276.48 196.553 1276.83 188.167 1277.52 187.043C1278.03 186.179 1280.24 186.654 1281.14 187.822ZM1274.23 209.822C1274.23 210.989 1274.06 211.681 1273.8 211.508C1273.59 211.378 1273.37 210.47 1273.37 209.52C1273.37 208.612 1273.59 207.834 1273.8 207.834C1274.06 207.834 1274.23 208.742 1274.23 209.822ZM1306.15 215.225C1306.8 218.251 1306.76 220.369 1306.02 220.369C1305.24 220.369 1304.9 218.985 1304.9 215.484C1304.9 212.113 1305.46 211.983 1306.15 215.225ZM1289.74 214.447C1290.3 215.139 1289.96 215.614 1288.83 215.614C1288.05 215.614 1287.75 214.75 1288.36 214.188C1288.79 213.755 1289.18 213.842 1289.74 214.447ZM1278.94 222.054C1278.9 223.61 1278.73 225.469 1278.6 226.204L1278.29 227.5L1277.78 225.771C1277.21 223.87 1277.08 220.325 1277.56 218.683C1277.82 217.689 1277.86 217.689 1278.42 218.423C1278.77 218.942 1278.98 220.325 1278.94 222.054ZM1290.21 219.677C1290.21 220.369 1289.09 221.665 1288.44 221.665C1287.93 221.665 1287.97 221.492 1288.57 220.152C1289.09 218.985 1290.21 218.683 1290.21 219.677ZM1299.07 233.638L1298.72 236.577L1298.16 232.687C1297.77 229.748 1297.77 228.711 1298.12 228.494C1298.98 227.976 1299.41 230.44 1299.07 233.638ZM1278.9 231.996C1279.11 233.335 1278.64 235.064 1278.12 235.064C1277.21 235.064 1276.65 232.99 1277.21 231.779C1277.78 230.483 1278.73 230.612 1278.9 231.996ZM1274.8 239.041L1274.36 240.9L1273.85 239.603C1273.2 238.09 1273.89 235.842 1274.75 236.707C1275.1 237.053 1275.1 237.744 1274.8 239.041ZM1278.34 241.505C1278.12 242.369 1277.99 242.456 1277.65 241.937C1277.08 241.072 1277.17 239.214 1277.82 237.787C1278.34 236.62 1278.34 236.62 1278.47 238.479C1278.55 239.56 1278.47 240.9 1278.34 241.505ZM1275.14 247.988C1275.96 252.699 1275.92 263.678 1275.05 264.715C1274.8 265.061 1274.1 265.321 1273.59 265.321C1272.72 265.321 1272.55 265.018 1272.12 261.949C1271.82 260.134 1271.47 256.114 1271.34 253.045C1271.08 247.556 1271.08 247.469 1272.07 246.735C1272.98 246.043 1273.07 245.827 1272.59 244.79C1272.07 243.709 1272.12 243.666 1273.24 243.795C1274.36 243.925 1274.45 244.098 1275.14 247.988ZM1314.19 424.987C1316.69 432.378 1319.02 441.498 1318.5 442.017C1318.33 442.19 1317.55 441.585 1316.78 440.677C1315.65 439.337 1315.14 438.17 1314.4 435.058C1313.93 432.854 1312.85 429.266 1312.03 427.062C1310.56 423.215 1310 418.59 1310.82 417.725C1311.38 417.164 1311.9 418.287 1314.19 424.987ZM1303.6 420.103C1303.6 420.578 1303.43 420.837 1303.17 420.708C1302.96 420.578 1302.74 420.059 1302.74 419.584C1302.74 419.109 1302.96 418.849 1303.17 418.979C1303.43 419.109 1303.6 419.627 1303.6 420.103ZM1300.8 421.788C1300.8 422.091 1300.54 422.437 1300.28 422.523C1299.93 422.653 1299.72 422.35 1299.72 421.788C1299.72 421.226 1299.93 420.924 1300.28 421.01C1300.54 421.14 1300.8 421.486 1300.8 421.788ZM1306.41 430.822C1307.23 434.021 1308.61 438.3 1309.43 440.331C1310.25 442.363 1310.95 444.351 1310.95 444.783C1310.95 445.95 1308.74 445.777 1307.58 444.567C1306.67 443.616 1301.01 428.142 1301.01 426.629C1301.01 426.197 1301.57 425.678 1302.31 425.376C1303.3 424.987 1303.6 424.598 1303.65 423.647V422.437L1304.25 423.733C1304.6 424.425 1305.55 427.624 1306.41 430.822Z" fill="#E3E4E8"/>
<path d="M634.151 121.387C633.892 122.382 633.719 124.154 633.806 125.407C633.935 127.309 634.065 127.655 634.885 127.784C635.879 127.914 637.175 126.488 637.175 125.191C637.175 124.067 635.447 119.659 635.015 119.659C634.799 119.659 634.41 120.437 634.151 121.387Z" fill="#E3E4E8"/>
<path d="M919.597 123.246C909.059 126.834 897.009 140.06 890.66 155.102C888.025 161.326 882.453 172.607 881.762 173.126C880.596 174.033 878.221 173.774 872.52 172.175C864.141 169.841 863.191 170.057 860.038 175.373C857.835 179.09 856.755 182.332 855.978 187.822C855.546 190.501 854.466 194.78 853.084 198.8C851.097 204.679 850.622 207.013 848.16 221.838C845.914 235.324 843.064 256.157 841.725 268.778C841.595 270.075 841.163 277.466 840.818 285.203C840.429 292.94 839.824 301.974 839.479 305.302C838.874 310.316 838.788 314.595 839.004 330.588C839.263 352.372 839.781 359.72 842.33 378.392C845.914 404.586 848.981 414.57 858.353 430.649C863.493 439.467 867.985 444.005 873.643 446.08C877.141 447.377 884.008 447.333 889.839 446.037C895.67 444.783 900.68 444.048 912.298 442.752C917.87 442.147 923.571 441.455 924.953 441.239C928.71 440.634 931.907 439.034 933.332 436.96C934.973 434.626 936.139 434.021 937.565 434.755C938.515 435.274 938.731 435.231 939.465 434.582C939.94 434.15 940.717 432.94 941.193 431.903C941.668 430.865 942.488 429.828 943.007 429.525C944.259 428.877 947.671 425.722 948.189 424.728C948.535 424.122 948.319 423.561 947.239 422.264C946.505 421.313 945.598 420.449 945.252 420.276C944.345 419.93 943.395 420.838 943.395 422.048C943.395 422.783 942.877 423.431 941.581 424.252C939.335 425.722 939.076 426.024 939.076 427.494C939.076 428.402 938.558 429.007 936.658 430.39C934.325 432.032 929.229 434.15 928.235 433.804C927.976 433.718 929.445 431.427 931.475 428.704C933.505 425.981 935.707 422.783 936.398 421.572C937.046 420.405 938.299 418.676 939.206 417.725C940.07 416.818 940.804 415.867 940.804 415.608C940.804 415.391 942.056 413.144 943.611 410.594C945.123 408.087 946.807 404.888 947.282 403.548C947.887 401.949 948.794 400.566 949.917 399.529C951.558 398.059 951.601 397.929 951.213 396.416C950.781 394.947 951.126 393.348 952.681 389.241C952.94 388.679 952.768 388.507 951.904 388.507C950.954 388.507 950.651 388.896 949.615 391.662C948.233 395.379 940.761 408.994 937.521 413.706C934.152 418.59 929.229 424.252 927.026 425.722C924.607 427.278 924.046 427.321 925.255 425.808C927.933 422.264 930.784 418.114 932.814 414.613C943.309 396.849 955.748 363.956 960.24 342.085C960.715 339.751 961.103 337.33 961.103 336.682L961.06 335.558L960.412 336.768C960.067 337.417 959.203 339.924 958.469 342.344C957.13 346.883 955.877 349.735 955.618 348.957C955.445 348.439 963.911 307.723 964.515 305.95C964.904 304.87 964.904 304.87 964.99 306.167C965.034 306.858 965.12 309.019 965.163 310.964C965.25 312.866 965.509 314.811 965.768 315.243C966.2 316.065 966.243 316.021 966.459 315.027C966.761 313.731 968.878 303.314 968.878 303.098C968.878 303.011 969.094 302.925 969.31 302.925C969.569 302.925 969.741 304.783 969.741 307.679C969.741 311.613 969.871 312.434 970.389 312.434C970.864 312.434 971.037 311.915 971.037 310.532C971.037 309.495 971.296 307.161 971.642 305.388C971.987 303.616 972.592 299.337 972.981 295.966C973.369 292.551 973.974 288.359 974.32 286.716C974.665 285.03 975.443 281.14 975.961 278.071C977.602 268.951 979.2 266.315 979.243 272.669C979.243 275.651 979.589 277.423 980.107 277.423C980.496 277.423 981.532 274.095 982.742 268.995C983.217 266.833 983.778 264.888 983.908 264.672C984.383 263.937 984.772 266.617 984.858 271.372C984.944 276.213 985.376 278.677 985.895 277.293C986.543 275.478 986.672 274.787 987.061 270.291C987.536 265.018 988.184 261.992 988.745 262.554C988.961 262.77 989.35 264.283 989.609 265.969C989.868 267.611 990.386 269.902 990.775 271.069C991.423 272.841 991.423 273.447 990.948 275.737C990.602 277.553 990.559 278.547 990.862 278.849C991.164 279.152 991.38 278.893 991.596 278.115C991.985 276.472 992.719 276.948 993.626 279.411C994.403 281.486 994.403 281.659 993.539 287.364C993.064 290.563 992.546 295.145 992.416 297.522C992.244 300.764 991.941 302.147 991.337 302.968C990.818 303.703 990.689 304.265 990.948 304.697C991.985 306.339 990.559 313.298 989.177 313.298C987.968 313.298 987.881 313.774 988.788 315.07C989.955 316.713 990.257 318.744 989.652 320.992C989.134 322.764 988.616 323.24 988.097 322.375C987.018 320.603 985.592 325.487 983.562 337.936C982.958 341.609 982.267 344.16 981.446 345.932L980.194 348.525L980.15 346.926C980.107 346.061 980.496 343.338 980.928 340.875C982.137 334.391 982.396 332.187 981.921 332.489C981.403 332.792 979.934 338.281 979.027 343.338C978.639 345.456 978.207 347.574 978.12 347.963C977.948 348.568 978.164 348.741 978.984 348.741C980.15 348.741 980.28 349.044 979.848 350.211C979.459 351.205 978.466 351.075 978.12 349.952C977.818 349.001 977.818 349.001 976.825 350.211C975.615 351.551 975.486 353.28 976.436 355.527C977.732 358.639 976.954 364.345 974.276 370.915C973.499 372.86 972.981 374.632 973.197 374.805C973.369 375.021 973.974 375.107 974.536 375.021C975.443 374.891 975.874 374.113 977.775 368.84C978.984 365.512 980.582 361.579 981.36 360.109C982.655 357.645 982.699 357.343 982.223 355.7C981.619 353.669 981.878 352.761 983.303 352.199C983.865 351.983 984.599 351.291 984.944 350.6C985.29 349.952 986.197 348.223 986.931 346.796C989.177 342.388 992.114 330.588 994.101 317.621C997.211 297.608 998.333 289.569 998.722 283.474C998.938 279.8 999.456 274.052 999.845 270.724C1000.8 262.77 1001.14 234.978 1000.45 225.339C1000.15 221.536 999.759 213.755 999.543 208.05C999.327 202.345 998.852 195.904 998.463 193.786C998.118 191.625 997.426 186.698 996.951 182.851C994.317 161.369 989.264 149.137 979.978 141.4C976.479 138.504 973.542 137.164 960.542 132.669C953.847 130.335 945.339 127.309 941.668 125.926C932.77 122.598 931.388 122.252 926.551 122.252C923.441 122.252 921.757 122.511 919.597 123.246ZM947.498 171.699C948.405 176.151 948.664 178.918 948.837 185.315C948.924 189.723 949.183 196.164 949.399 199.621C949.831 206.191 949.356 233.725 948.578 250.193C948.017 261.733 945.771 291.341 944.864 298.602C944.518 301.585 943.654 307.506 942.92 311.786C937.78 342.517 935.578 351.378 926.81 375.885C920.807 392.526 920.893 392.353 916.919 398.967C914.155 403.591 909.923 411.199 908.281 414.397C907.029 416.904 904.869 416.386 903.228 413.144C902.753 412.193 901.976 411.242 901.5 410.983C900.766 410.594 900.637 410.637 900.637 411.588C900.637 412.15 901.198 413.879 901.932 415.391C902.623 416.861 903.228 418.59 903.228 419.195C903.228 420.838 902.062 422.221 900.723 422.221C899.6 422.221 899.384 421.875 897.268 416.386C895.843 412.798 894.633 410.334 894.072 409.902C893.294 409.383 893.208 409.124 893.64 408.216C894.029 407.352 893.942 407.049 893.122 406.271C892.344 405.537 892.042 404.672 891.869 402.641C891.567 399.399 889.839 394.385 887.852 390.97C886.211 388.161 885.606 386.345 886.341 386.345C887.032 386.345 886.945 385.092 886.168 384.357C885.779 383.968 885.52 382.931 885.52 381.85C885.52 379.776 884.656 378.263 883.792 378.781C883.36 379.041 883.317 380.337 883.533 384.573C883.836 390.365 884.354 393.002 885.218 393.564C885.52 393.737 885.779 394.774 885.822 395.855C886.081 403.894 886.513 408.26 887.204 409.254C889.018 412.063 889.45 414.354 888.327 415.305C887.42 416.04 886.643 415.002 885.693 411.847C885.304 410.55 884.052 406.358 882.885 402.554C881.719 398.75 880.38 393.866 879.905 391.705C878.35 384.444 875.586 352.026 876.364 350.254C876.925 349.001 880.251 348.439 882.756 349.13C883.706 349.39 885.822 349.606 887.464 349.606C890.919 349.606 893.208 348.698 898.348 345.37C902.926 342.388 903.012 340.831 898.65 340.313C895.756 339.924 892.862 338.152 891.264 335.731C890.228 334.132 890.055 333.397 889.796 328.902C889.623 326.136 889.321 323.24 889.148 322.462C888.889 321.122 888.802 321.078 888.068 321.727C887.377 322.418 887.248 322.375 886.557 321.295C885.909 320.3 885.909 319.868 886.341 317.837C886.729 316.151 886.729 315.243 886.384 314.638C886.081 314.033 886.081 312.564 886.384 309.754C886.643 307.55 886.859 304.567 886.945 303.141L887.032 300.548L888.673 300.677C889.537 300.764 890.314 300.591 890.314 300.331C890.357 300.115 890.444 298.991 890.487 297.824C890.53 296.701 891.092 293.07 891.783 289.742C892.474 286.111 892.949 282.394 892.906 280.449C892.862 276.299 893.035 275.867 895.065 274.57C896.015 273.965 896.75 273.187 896.75 272.712C896.75 272.28 897.441 269.643 898.261 266.79C899.125 263.981 900.075 260.35 900.421 258.707C901.155 255.379 902.278 253.261 902.839 254.169C903.055 254.472 903.228 255.941 903.228 257.411C903.228 258.924 903.401 260.134 903.617 260.134C903.833 260.134 904.61 258.578 905.388 256.719C906.122 254.817 907.115 252.959 907.59 252.57C908.368 251.835 908.411 251.878 908.8 252.959C909.75 255.379 911.218 253.521 911.65 249.328C911.823 247.729 912.816 244.228 913.896 241.332C914.976 238.479 918.129 229.229 920.936 220.801C923.7 212.372 927.026 202.906 928.279 199.838C929.531 196.726 931.561 191.496 932.814 188.167C935.362 181.381 937.953 175.935 940.372 172.391C943.179 168.285 945.641 165.389 945.987 165.778C946.203 165.951 946.894 168.63 947.498 171.699ZM984.858 258.146C984.858 258.837 984.081 259.486 983.692 259.097C983.346 258.751 983.908 257.54 984.426 257.54C984.642 257.54 984.858 257.8 984.858 258.146ZM964.127 271.674C964.127 274.57 963.997 275.694 963.695 275.262C962.961 274.138 963.22 267.482 963.954 267.482C964.04 267.482 964.127 269.384 964.127 271.674ZM886.816 269.902C886.816 270.248 886.6 270.421 886.384 270.291C886.125 270.118 886.038 269.816 886.168 269.6C886.557 268.995 886.816 269.124 886.816 269.902ZM970.217 298.732C969.871 299.078 969.741 298.646 969.741 297.263C969.741 294.712 970.346 294.107 970.519 296.441C970.605 297.479 970.432 298.516 970.217 298.732ZM987.881 329.507C987.881 330.89 987.45 331.928 986.974 331.625C986.543 331.366 986.456 329.68 986.845 328.686C987.19 327.735 987.881 328.254 987.881 329.507ZM986.154 338.973C986.154 339.708 985.549 340.226 985.16 339.837C984.815 339.492 985.29 338.368 985.765 338.368C985.981 338.368 986.154 338.627 986.154 338.973ZM952.508 350.773C952.163 351.421 952.077 351.205 952.033 349.779C952.033 348.828 952.163 347.877 952.379 347.704C952.854 347.185 952.984 349.952 952.508 350.773ZM948.837 363.264C948.017 366.592 946.85 370.439 946.289 371.866C945.728 373.292 944.864 376.058 944.302 378.003C943.395 381.461 940.89 388.55 938.99 393.045C937.91 395.682 929.056 411.156 925.86 416.04C920.979 423.431 918.777 425.549 916.747 424.771C916.185 424.555 915.753 424.079 915.753 423.647C915.797 422.61 918.302 417.942 918.345 418.849C918.345 419.887 918.561 419.843 920.763 418.158C923.398 416.126 924.348 414.829 925.558 411.545C926.767 408.13 926.81 407.784 925.687 408.389C925.255 408.649 924.089 410.421 923.182 412.409C921.93 414.959 921.066 416.169 920.116 416.731C919.381 417.164 918.777 417.423 918.777 417.336C918.777 417.25 920.85 413.36 923.355 408.778C927.717 400.782 930.309 397.151 930.74 398.318C931.086 399.312 933.461 397.151 933.461 395.811C933.461 393.823 932.641 393.953 932.123 396.071C931.604 398.102 931.129 398.491 930.697 397.324C930.179 395.984 930.438 394.212 931.345 393.088C932.425 391.705 933.03 391.662 933.03 392.915C933.03 393.65 933.159 393.737 933.548 393.348C933.937 392.959 933.937 392.699 933.548 392.31C933.245 392.008 933.03 391.143 933.03 390.365C933.03 388.679 940.89 367.587 941.927 366.376C942.359 365.944 943.395 365.382 944.302 365.08C946.203 364.518 946.548 363.913 945.943 362.27C945.512 361.146 945.684 360.93 947.714 358.942C948.924 357.818 950.003 356.954 950.133 357.083C950.263 357.17 949.658 359.979 948.837 363.264ZM866.603 366.852C866.516 367.673 866.819 368.667 867.553 369.834C868.978 372.082 870.447 377.139 872.131 385.567C872.822 389.198 873.772 393.52 874.204 395.163L874.938 398.145L873.988 398.75C873.427 399.139 872.995 399.788 872.995 400.22C872.995 401.344 871.872 401.257 871.094 400.047C870.058 398.405 867.337 384.228 865.825 372.384C865.307 368.019 865.264 366.722 865.652 366.247C866.473 365.253 866.819 365.469 866.603 366.852ZM866.948 392.829C866.948 393.045 866.862 393.261 866.775 393.261C866.646 393.261 866.43 393.045 866.3 392.829C866.171 392.57 866.257 392.397 866.473 392.397C866.732 392.397 866.948 392.57 866.948 392.829ZM875.759 400.436C876.148 401.387 875.629 401.819 875.154 401.041C874.636 400.22 874.636 399.745 875.111 399.745C875.327 399.745 875.629 400.047 875.759 400.436ZM873.859 405.104C873.859 405.45 873.686 405.839 873.47 405.969C873.038 406.271 872.476 405.148 872.865 404.759C873.34 404.283 873.859 404.499 873.859 405.104ZM877.4 406.098C878.264 407.093 878.782 408.821 878.221 408.821C878.005 408.821 877.4 408.303 876.925 407.698C875.457 405.839 875.932 404.413 877.4 406.098ZM879.43 412.063C879.473 412.841 879.43 412.841 878.782 412.193C878.307 411.717 878.178 411.199 878.394 410.507C878.739 409.513 878.739 409.513 879.085 410.334C879.257 410.81 879.43 411.588 879.43 412.063ZM876.796 414.095C876.58 415.478 875.586 415.608 875.586 414.268C875.586 413.533 875.802 413.144 876.277 413.144C876.709 413.144 876.882 413.446 876.796 414.095ZM881.633 417.942C881.633 418.72 881.546 418.763 880.985 418.331C880.639 418.028 880.337 417.639 880.337 417.423C880.337 417.207 880.639 417.034 880.985 417.034C881.374 417.034 881.633 417.423 881.633 417.942ZM876.018 417.855C876.018 418.114 875.845 418.417 875.586 418.547C875.37 418.676 875.154 418.503 875.154 418.158C875.154 417.769 875.37 417.466 875.586 417.466C875.845 417.466 876.018 417.639 876.018 417.855ZM891.567 419.454C891.567 420.665 891.437 420.967 890.832 420.838C889.494 420.578 889.58 417.898 890.919 417.898C891.394 417.898 891.567 418.331 891.567 419.454ZM896.793 419.757C896.75 420.276 896.145 420.146 895.972 419.584C895.843 419.325 896.015 419.152 896.318 419.238C896.577 419.368 896.793 419.584 896.793 419.757ZM886.773 425.938C887.895 427.364 888.025 428.661 886.988 427.796C886.081 427.062 884.959 424.814 885.477 424.814C885.693 424.814 886.297 425.333 886.773 425.938ZM917.049 426.068C917.049 427.018 916.401 427.58 915.753 427.191C915.451 427.018 915.451 426.629 915.753 426.068C916.358 424.987 917.049 424.987 917.049 426.068Z" fill="#E3E4E8"/>
<path d="M894.46 278.806C894.287 279.411 894.028 280.276 893.899 280.751C893.64 281.486 893.64 281.486 894.331 280.838C894.806 280.406 895.022 279.671 894.935 278.893L894.806 277.639L894.46 278.806Z" fill="#E3E4E8"/>
<path d="M882.971 361.535C882.971 362.011 883.101 362.14 883.23 361.795C883.36 361.492 883.317 361.103 883.187 360.973C883.058 360.8 882.928 361.06 882.971 361.535Z" fill="#E3E4E8"/>
<path d="M894.158 391.273C894.158 393.996 894.287 394.515 895.065 395.033C895.713 395.509 896.144 396.633 896.749 399.572C897.57 403.764 899.772 409.772 900.42 409.729C901.327 409.686 901.025 407.741 899.211 402.035C898.174 398.75 896.922 394.515 896.49 392.613C895.713 389.155 895.237 388.074 894.546 388.074C894.33 388.074 894.158 389.501 894.158 391.273Z" fill="#E3E4E8"/>
<path d="M937.694 380.078C937.78 380.899 938.04 381.591 938.212 381.591C938.86 381.591 939.163 379.819 938.644 379.214C937.78 378.176 937.521 378.479 937.694 380.078Z" fill="#E3E4E8"/>
<path d="M935.016 388.463C934.843 388.766 934.8 389.112 934.93 389.241C935.319 389.63 935.75 389.068 935.535 388.463C935.362 387.988 935.275 387.988 935.016 388.463Z" fill="#E3E4E8"/>
<path d="M929.185 402.251C928.84 402.9 928.84 403.246 929.185 403.462C929.92 403.894 930.611 402.986 930.092 402.079C929.704 401.387 929.661 401.387 929.185 402.251Z" fill="#E3E4E8"/>
<path d="M918.085 422.826C917.653 423.171 917.394 423.56 917.524 423.69C917.653 423.82 918.128 423.56 918.56 423.085C919.467 422.091 919.295 421.961 918.085 422.826Z" fill="#E3E4E8"/>
<path d="M1294.53 123.981C1294.53 124.197 1294.75 124.413 1294.97 124.413C1295.22 124.413 1295.4 124.197 1295.4 123.981C1295.4 123.722 1295.22 123.549 1294.97 123.549C1294.75 123.549 1294.53 123.722 1294.53 123.981Z" fill="#E3E4E8"/>
<path d="M1289.87 134.7C1289.57 135.651 1289.35 136.948 1289.35 137.639L1289.39 138.893L1290.21 137.856C1291.08 136.818 1291.34 134.571 1290.73 133.576C1290.47 133.187 1290.21 133.576 1289.87 134.7Z" fill="#E3E4E8"/>
<path d="M652.335 141.962C652.335 142.437 652.464 142.567 652.594 142.221C652.723 141.919 652.68 141.53 652.551 141.4C652.421 141.227 652.291 141.486 652.335 141.962Z" fill="#E3E4E8"/>
<path d="M1136.33 146.327C1136.15 146.457 1136.02 147.451 1136.02 148.488C1136.02 149.785 1136.2 150.347 1136.63 150.347C1136.97 150.347 1137.32 150.088 1137.45 149.742C1137.75 149.007 1136.72 145.895 1136.33 146.327Z" fill="#E3E4E8"/>
<path d="M639.032 154.886C638.73 155.75 639.68 157.998 640.544 158.343C641.753 158.776 642.098 157.868 641.321 156.269C640.544 154.583 639.421 153.935 639.032 154.886Z" fill="#E3E4E8"/>
<path d="M1130.8 156.658C1130.28 157.263 1130.32 157.349 1131.01 157.219C1131.49 157.133 1131.92 156.787 1132.05 156.485C1132.27 155.75 1131.49 155.836 1130.8 156.658Z" fill="#E3E4E8"/>
<path d="M1126.52 160.677C1125.01 162.233 1121.64 168.457 1122.03 168.89C1122.51 169.408 1125.87 165.345 1127.39 162.363C1129.33 158.646 1129.03 158.041 1126.52 160.677Z" fill="#E3E4E8"/>
<path d="M1293.54 165.086C1293.07 166.729 1293.19 170.921 1293.71 172.261L1294.19 173.471L1294.62 172.391C1295.22 170.792 1295.1 166.556 1294.4 165.259L1293.8 164.049L1293.54 165.086Z" fill="#E3E4E8"/>
<path d="M1119.66 170.273C1118.88 170.748 1118.32 171.267 1118.49 171.397C1118.83 171.786 1121.25 170.662 1121.51 169.97C1121.82 169.149 1121.38 169.192 1119.66 170.273Z" fill="#E3E4E8"/>
<path d="M984.728 311.656C983.173 320.473 982.698 326.265 983.519 326.265C984.037 326.265 984.642 323.326 985.981 314.379C986.586 310.359 987.147 306.339 987.277 305.518C987.406 304.61 987.277 303.703 986.931 303.227C986.456 302.579 986.154 303.746 984.728 311.656Z" fill="#E3E4E8"/>
<path d="M974.362 360.282C974.19 360.412 974.06 360.757 974.06 361.017C974.06 361.276 974.276 361.233 974.578 360.93C974.837 360.671 974.967 360.325 974.881 360.195C974.751 360.066 974.492 360.109 974.362 360.282Z" fill="#E3E4E8"/>
<path d="M972.721 362.616C972.419 363.264 972.376 363.653 972.721 363.999C973.024 364.302 973.283 364.086 973.628 363.264C974.147 361.795 974.147 361.708 973.628 361.708C973.412 361.708 973.024 362.097 972.721 362.616Z" fill="#E3E4E8"/>
<path d="M971.469 379.603C971.469 380.337 971.685 380.726 972.16 380.726C972.592 380.726 972.764 380.424 972.678 379.775C972.462 378.392 971.469 378.263 971.469 379.603Z" fill="#E3E4E8"/>
<path d="M953.372 384.357C953.07 385.092 952.897 386.259 952.983 386.951L953.156 388.291L953.933 386.691C954.581 385.438 954.668 384.876 954.322 384.098L953.847 383.104L953.372 384.357Z" fill="#E3E4E8"/>
<path d="M969.828 385.135C969.223 385.74 969.137 386.345 969.698 386.345C970.087 386.345 970.735 385.049 970.475 384.789C970.389 384.703 970.087 384.876 969.828 385.135Z" fill="#E3E4E8"/>
<path d="M954.711 392.267C954.927 393.347 955.92 393.477 955.92 392.44C955.92 391.921 955.661 391.532 955.229 391.532C954.84 391.532 954.624 391.835 954.711 392.267Z" fill="#E3E4E8"/>
<path d="M964.429 395.682C964.083 396.373 963.651 397.627 963.479 398.448L963.176 399.961L964.083 399.096C965.163 398.059 965.897 395.768 965.422 394.99C965.163 394.601 964.904 394.774 964.429 395.682Z" fill="#E3E4E8"/>
<path d="M961.578 401.387C960.412 402.554 960.239 402.9 960.671 403.419C961.492 404.413 961.967 404.197 962.658 402.511C963.608 400.22 963.176 399.745 961.578 401.387Z" fill="#E3E4E8"/>
<path d="M958.598 406.531C958.684 406.963 959.03 407.309 959.375 407.309C960.326 407.309 960.153 406.055 959.246 405.882C958.641 405.753 958.468 405.925 958.598 406.531Z" fill="#E3E4E8"/>
<path d="M955.575 409.772C955.272 410.075 955.056 410.594 955.056 410.983C955.056 411.372 954.84 411.89 954.538 412.193C953.847 412.884 954.711 413.792 955.704 413.403C956.698 413.057 957.691 410.464 957.13 409.772C956.568 409.124 956.223 409.124 955.575 409.772Z" fill="#E3E4E8"/>
<path d="M947.369 416.688C946.591 417.466 946.721 417.769 947.973 418.071C949.399 418.46 949.658 418.201 949.01 417.077C948.492 416.04 948.103 415.953 947.369 416.688Z" fill="#E3E4E8"/>
<path d="M949.312 422.091C949.139 422.221 949.01 422.739 949.01 423.215C949.01 424.036 949.053 424.036 949.874 423.301C950.349 422.869 950.608 422.35 950.478 422.177C950.219 421.702 949.701 421.659 949.312 422.091Z" fill="#E3E4E8"/>
<path d="M1030.77 491.438L1030.77 491.432L1030.77 491.425C1033.23 486.672 1034.66 483.942 1035.6 482.407C1036.07 481.653 1036.48 481.063 1036.92 480.66C1037.44 480.177 1038.02 479.936 1038.67 479.936C1039.17 479.936 1039.68 480.047 1040.12 480.286C1040.48 480.482 1041.21 481.017 1041.21 481.998C1041.21 482.227 1041.16 482.415 1041.14 482.456C1041.14 482.458 1041.14 482.459 1041.14 482.461C1041.12 482.535 1041.1 482.604 1041.08 482.657C1041.04 482.767 1040.99 482.893 1040.93 483.023C1040.82 483.288 1040.65 483.642 1040.45 484.067C1040.05 484.919 1039.48 486.101 1038.78 487.525C1037.37 490.375 1035.43 494.217 1033.31 498.37L1033.31 498.37L1033.31 498.374C1029.87 505.079 1027.88 508.893 1026.63 511.042C1026.01 512.104 1025.52 512.852 1025.08 513.353C1024.61 513.891 1024.06 514.293 1023.32 514.39C1023.07 514.423 1022.78 514.448 1022.48 514.424C1022.19 514.401 1021.76 514.323 1021.36 514.034C1020.4 513.337 1020.54 512.226 1020.64 511.736C1020.77 511.151 1021.05 510.447 1021.43 509.654C1021.81 508.834 1022.34 507.809 1023.01 506.545C1023.22 506.133 1023.5 505.598 1023.83 504.963C1025.44 501.847 1028.3 496.346 1030.77 491.438Z" fill="#E3E4E8" stroke="#E3E4E8" stroke-width="3"/>
<path d="M944.822 508.229L944.486 507.816V507.284V495.224V483.165V481.665H945.986H947.239H948.535H950.018L950.034 483.149L950.164 494.862L950.286 505.896L950.976 506.488C951.417 506.861 951.582 506.953 952.001 507.029C952.603 507.14 953.58 507.167 955.661 507.167C956.137 507.167 956.561 507.17 956.942 507.173C958.045 507.182 958.785 507.188 959.371 507.1C959.721 507.048 959.882 506.976 959.961 506.926C960.018 506.89 960.093 506.83 960.183 506.649C960.419 506.18 960.605 505.245 960.711 503.28C960.789 501.813 960.82 499.936 960.859 497.492C960.871 496.764 960.884 495.986 960.899 495.154L960.899 495.154L961.115 483.354L961.14 482.009L962.479 481.887L963.9 481.758L963.904 481.758L965.282 481.629L966.922 481.475V483.122V494.706C966.922 501.109 966.897 504.709 966.474 506.917C966.251 508.083 965.898 508.995 965.297 509.773C964.722 510.518 963.995 511.033 963.279 511.511C962.476 512.055 961.77 512.411 960.59 512.587C959.549 512.742 958.106 512.76 955.834 512.76C953.042 512.76 951.115 512.684 949.635 512.244C948.004 511.76 947.007 510.869 945.964 509.635L945.954 509.624L945.945 509.612L944.822 508.229Z" fill="#E3E4E8" stroke="#E3E4E8" stroke-width="3"/>
<path d="M997.919 487.87L997.919 487.87C997 489.366 996.118 490.727 995.439 491.718C995.381 491.801 995.326 491.882 995.272 491.959C995.244 491.921 995.215 491.882 995.186 491.842C994.484 490.885 993.566 489.523 992.609 487.99L992.604 487.983L992.604 487.983C991.033 485.497 990.062 483.984 989.333 483.115C988.957 482.666 988.551 482.27 988.055 482.007C987.515 481.721 987.009 481.665 986.585 481.665C986.096 481.665 985.608 481.74 985.195 481.861C984.99 481.922 984.766 482.005 984.555 482.119C984.393 482.206 984.044 482.412 983.801 482.803C983.526 483.243 983.558 483.681 983.566 483.79C983.58 483.969 983.619 484.125 983.648 484.225C983.708 484.435 983.797 484.656 983.887 484.856C984.073 485.271 984.347 485.797 984.676 486.387C985.339 487.575 986.286 489.127 987.355 490.765C988.928 493.224 990.386 495.5 991.073 496.566C990.92 496.88 990.694 497.303 990.399 497.822C989.709 499.037 988.692 500.681 987.498 502.474C986.302 504.258 985.213 505.947 984.419 507.229C984.023 507.868 983.694 508.417 983.461 508.829C983.346 509.033 983.244 509.221 983.167 509.379C983.129 509.455 983.086 509.547 983.05 509.642C983.049 509.643 983.049 509.645 983.048 509.647C983.031 509.687 982.926 509.949 982.926 510.266C982.926 511.408 983.863 511.915 984.268 512.074C984.758 512.266 985.323 512.328 985.851 512.328C986.231 512.328 986.751 512.308 987.312 512.059C987.859 511.816 988.297 511.423 988.705 510.96C989.478 510.082 990.513 508.5 992.25 505.807C993.28 504.219 994.249 502.781 994.987 501.747C995.047 501.663 995.106 501.581 995.162 501.503C995.217 501.58 995.274 501.66 995.333 501.743C996.068 502.78 997.038 504.22 998.067 505.808L997.919 487.87ZM997.919 487.87L997.922 487.864M997.919 487.87L997.922 487.864M997.922 487.864C999.451 485.399 1000.41 483.906 1001.14 483.051C1001.53 482.604 1001.95 482.218 1002.46 481.969C1003 481.705 1003.5 481.665 1003.9 481.665C1004.4 481.665 1005.07 481.71 1005.64 482.049C1005.96 482.242 1006.24 482.523 1006.43 482.896C1006.61 483.253 1006.66 483.609 1006.66 483.9C1006.66 484.139 1006.6 484.338 1006.58 484.425C1006.55 484.538 1006.51 484.645 1006.47 484.738C1006.4 484.924 1006.3 485.134 1006.19 485.351C1005.97 485.79 1005.66 486.346 1005.3 486.974C1004.57 488.234 1003.57 489.845 1002.48 491.505L999.132 496.685L1002.91 502.388L997.922 487.864ZM994.25 500.313C994.25 500.313 994.252 500.315 994.254 500.317C994.251 500.314 994.25 500.313 994.25 500.313ZM996.063 500.347C996.067 500.343 996.067 500.342 996.063 500.347L996.063 500.347ZM991.262 496.134C991.263 496.13 991.263 496.131 991.261 496.137C991.262 496.136 991.262 496.135 991.262 496.134Z" fill="#E3E4E8" stroke="#E3E4E8" stroke-width="3"/>
<path d="M1058.26 508.735L1057.87 508.31L1057.86 507.732L1057.73 495.456L1057.6 483.181L1057.59 481.665H1059.1H1060.44H1061.74H1063.24V483.165V493.971L1063.24 494.185C1063.24 497.78 1063.24 500.426 1063.34 502.405C1063.45 504.47 1063.67 505.567 1063.98 506.18C1064.11 506.448 1064.24 506.59 1064.38 506.686C1064.52 506.79 1064.74 506.895 1065.12 506.978C1065.95 507.161 1067.13 507.167 1069.04 507.167C1071.05 507.167 1071.99 507.14 1072.58 507.03C1072.98 506.955 1073.15 506.865 1073.59 506.488L1074.28 505.896L1074.4 494.862L1074.53 483.149L1074.55 481.665H1076.03H1077.33H1078.58H1080.08V483.165V494.922C1080.08 500.406 1080.07 503.44 1079.95 505.262C1079.9 506.18 1079.8 506.874 1079.65 507.458C1079.48 508.081 1079.25 508.52 1079 508.932L1078.99 508.935C1078.1 510.395 1077.1 511.48 1075.39 512.09C1073.84 512.643 1071.8 512.76 1068.95 512.76C1066.25 512.76 1064.39 512.694 1062.96 512.294C1061.39 511.854 1060.41 511.041 1059.35 509.908L1059.35 509.909L1059.34 509.902L1058.26 508.735Z" fill="#E3E4E8" stroke="#E3E4E8" stroke-width="3"/>
<path d="M1101.04 512.328H1099.54V510.828V496.953V483.122V481.479L1101.18 481.628L1102.6 481.758L1102.61 481.758L1103.99 481.888L1105.33 482.014L1105.35 483.367L1105.48 497.069H1105.48L1105.48 497.074L1105.56 510.819L1105.57 512.328H1104.06H1102.55H1101.04Z" fill="#E3E4E8" stroke="#E3E4E8" stroke-width="3"/>
</svg>
