<svg width="271" height="111" viewBox="0 0 271 111" fill="none" xmlns="http://www.w3.org/2000/svg">
<rect width="271" height="111" fill="white" fill-opacity="0.01"/>
<path d="M18.1424 68V28.4032H29.9784C33.9596 28.4032 37.349 28.995 40.1466 30.1786C42.9442 31.3622 45.1859 32.9403 46.8716 34.913C48.5932 36.8857 49.8486 39.0915 50.6377 41.5304C51.4267 43.9693 51.8212 46.4262 51.8212 48.901C51.8212 51.8421 51.2832 54.4962 50.2073 56.8634C49.1671 59.1947 47.7325 61.2033 45.9032 62.889C44.074 64.5389 41.9579 65.8121 39.5548 66.7088C37.1518 67.5696 34.6052 68 31.9152 68H18.1424ZM25.9434 60.468H30.5702C32.5429 60.468 34.3362 60.2169 35.9502 59.7148C37.5642 59.1768 38.9451 58.4057 40.0928 57.4014C41.2764 56.3971 42.1731 55.1418 42.7828 53.6354C43.4284 52.0931 43.7513 50.3357 43.7513 48.363C43.7513 45.7806 43.3209 43.6824 42.4601 42.0684C41.6351 40.4185 40.595 39.1453 39.3396 38.2486C38.1202 37.3519 36.8648 36.7422 35.5736 36.4194C34.2824 36.0607 33.1885 35.8814 32.2918 35.8814H25.9434V60.468ZM59.6483 28.4032H86.6559V35.9352H67.4493V44.3818H84.4501V51.9138H67.4493V60.468H87.4091V68H59.6483V28.4032ZM116.623 37.9796C115.117 37.1547 113.575 36.4732 111.997 35.9352C110.454 35.3972 109.002 35.1282 107.639 35.1282C105.953 35.1282 104.626 35.4689 103.658 36.1504C102.689 36.8319 102.205 37.8541 102.205 39.217C102.205 40.1495 102.564 40.9924 103.281 41.7456C104.034 42.4629 104.985 43.1085 106.132 43.6824C107.316 44.2563 108.535 44.7763 109.791 45.2426C110.938 45.673 112.068 46.1931 113.18 46.8028C114.328 47.3767 115.35 48.1119 116.247 49.0086C117.143 49.8694 117.861 50.9633 118.399 52.2904C118.937 53.5816 119.206 55.1777 119.206 57.0786C119.206 59.0871 118.686 60.9522 117.646 62.6738C116.605 64.3954 115.081 65.7942 113.073 66.8702C111.064 67.9103 108.589 68.4304 105.648 68.4304C104.142 68.4304 102.599 68.2869 101.021 68C99.4791 67.6772 97.9547 67.2109 96.4483 66.6012C94.9419 65.9556 93.4893 65.1486 92.0905 64.1802L95.5337 58.1008C96.4663 58.7823 97.4705 59.392 98.5465 59.93C99.6584 60.4321 100.77 60.8267 101.882 61.1136C102.994 61.4005 104.016 61.544 104.949 61.544C105.881 61.544 106.814 61.4185 107.746 61.1674C108.715 60.8805 109.504 60.4142 110.114 59.7686C110.759 59.123 111.082 58.2263 111.082 57.0786C111.082 56.2895 110.813 55.5722 110.275 54.9266C109.773 54.281 109.073 53.6892 108.177 53.1512C107.316 52.6132 106.365 52.1469 105.325 51.7524C104.106 51.2861 102.851 50.7481 101.559 50.1384C100.268 49.5287 99.0487 48.7934 97.9009 47.9326C96.7891 47.0359 95.8745 45.942 95.1571 44.6508C94.4757 43.3237 94.1349 41.7097 94.1349 39.8088C94.1349 37.5133 94.6371 35.5227 95.6413 33.837C96.6815 32.1513 98.1341 30.8242 99.9991 29.8558C101.864 28.8515 104.016 28.2956 106.455 28.188C109.647 28.188 112.23 28.5646 114.202 29.3178C116.211 30.071 118.004 30.9677 119.582 32.0078L116.623 37.9796ZM126.846 28.4032H134.647V68H126.846V28.4032ZM176.985 64.0188C176.519 64.5209 175.784 65.041 174.779 65.579C173.775 66.0811 172.61 66.5474 171.282 66.9778C169.991 67.4082 168.664 67.7489 167.301 68C165.938 68.2869 164.647 68.4304 163.428 68.4304C160.2 68.4304 157.294 67.9641 154.712 67.0316C152.13 66.0632 149.924 64.7361 148.095 63.0504C146.265 61.3288 144.867 59.3023 143.898 56.971C142.93 54.6397 142.446 52.0931 142.446 49.3314C142.446 45.7089 142.984 42.5705 144.06 39.9164C145.172 37.2264 146.66 35.0027 148.525 33.2452C150.426 31.4519 152.596 30.1248 155.035 29.264C157.51 28.4032 160.092 27.9728 162.782 27.9728C165.329 27.9728 167.66 28.2597 169.776 28.8336C171.892 29.3716 173.686 30.0531 175.156 30.878L172.627 38.141C171.982 37.7823 171.121 37.4237 170.045 37.065C168.969 36.7063 167.875 36.4194 166.763 36.2042C165.651 35.9531 164.665 35.8276 163.804 35.8276C161.652 35.8276 159.751 36.0966 158.101 36.6346C156.452 37.1726 155.053 37.9796 153.905 39.0556C152.793 40.1316 151.95 41.4766 151.376 43.0906C150.803 44.6687 150.516 46.5159 150.516 48.632C150.516 50.4971 150.838 52.1828 151.484 53.6892C152.13 55.1597 153.026 56.4151 154.174 57.4552C155.358 58.4953 156.739 59.2844 158.317 59.8224C159.931 60.3604 161.706 60.6294 163.643 60.6294C164.755 60.6294 165.777 60.5577 166.709 60.4142C167.642 60.2349 168.431 59.9659 169.077 59.6072V54.819H162.244V47.287H176.985V64.0188ZM221.301 69.614L191.281 42.4988L193.594 43.79L193.756 68H185.847V26.843H186.17L215.545 53.8506L213.823 53.0974L213.662 28.4032H221.517V69.614H221.301ZM252.857 37.9796C251.351 37.1547 249.808 36.4732 248.23 35.9352C246.688 35.3972 245.235 35.1282 243.873 35.1282C242.187 35.1282 240.86 35.4689 239.891 36.1504C238.923 36.8319 238.439 37.8541 238.439 39.217C238.439 40.1495 238.797 40.9924 239.515 41.7456C240.268 42.4629 241.218 43.1085 242.366 43.6824C243.55 44.2563 244.769 44.7763 246.025 45.2426C247.172 45.673 248.302 46.1931 249.414 46.8028C250.562 47.3767 251.584 48.1119 252.481 49.0086C253.377 49.8694 254.095 50.9633 254.633 52.2904C255.171 53.5816 255.44 55.1777 255.44 57.0786C255.44 59.0871 254.919 60.9522 253.879 62.6738C252.839 64.3954 251.315 65.7942 249.306 66.8702C247.298 67.9103 244.823 68.4304 241.882 68.4304C240.376 68.4304 238.833 68.2869 237.255 68C235.713 67.6772 234.189 67.2109 232.682 66.6012C231.176 65.9556 229.723 65.1486 228.324 64.1802L231.768 58.1008C232.7 58.7823 233.704 59.392 234.78 59.93C235.892 60.4321 237.004 60.8267 238.116 61.1136C239.228 61.4005 240.25 61.544 241.183 61.544C242.115 61.544 243.048 61.4185 243.98 61.1674C244.949 60.8805 245.738 60.4142 246.347 59.7686C246.993 59.123 247.316 58.2263 247.316 57.0786C247.316 56.2895 247.047 55.5722 246.509 54.9266C246.007 54.281 245.307 53.6892 244.411 53.1512C243.55 52.6132 242.599 52.1469 241.559 51.7524C240.34 51.2861 239.084 50.7481 237.793 50.1384C236.502 49.5287 235.282 48.7934 234.135 47.9326C233.023 47.0359 232.108 45.942 231.391 44.6508C230.709 43.3237 230.369 41.7097 230.369 39.8088C230.369 37.5133 230.871 35.5227 231.875 33.837C232.915 32.1513 234.368 30.8242 236.233 29.8558C238.098 28.8515 240.25 28.2956 242.689 28.188C245.881 28.188 248.463 28.5646 250.436 29.3178C252.445 30.071 254.238 30.9677 255.816 32.0078L252.857 37.9796Z" fill="#228662" fill-opacity="0.5"/>
<g filter="url(#filter0_d_2552_4905)">
<path d="M85.1779 90.0003C83.7531 90.0003 82.6845 89.5345 81.9721 88.6029C81.2871 87.6713 80.9446 86.4109 80.9446 84.8217C80.9446 83.4517 81.1775 81.8351 81.6433 79.9719C82.1091 78.1087 82.7256 76.1633 83.4928 74.1357C84.26 72.0807 85.1094 70.0805 86.041 68.1351C87 66.1897 87.959 64.4361 88.918 62.8743C89.877 61.2851 90.7812 60.0247 91.6306 59.0931C92.48 58.1341 93.1787 57.6546 93.7267 57.6546C94.1925 57.6546 94.5213 57.9423 94.7131 58.5177C94.9323 59.0931 95.0419 59.6685 95.0419 60.2439C95.0419 61.0111 94.8775 61.9427 94.5487 63.0387C94.2199 64.1347 93.7541 65.3129 93.1513 66.5733C92.5485 67.8063 91.8498 69.0256 91.0552 70.2312C90.2606 71.4368 89.3975 72.5465 88.4659 73.5603C87.5617 74.5467 86.6301 75.3276 85.6711 75.903C85.5067 76.2044 85.2601 76.8346 84.9313 77.7936C84.6299 78.7252 84.3422 79.8075 84.0682 81.0405C83.8216 82.2461 83.6983 83.4243 83.6983 84.5751C83.6983 85.6985 83.8627 86.6164 84.1915 87.3288C84.5477 88.0686 85.1368 88.4385 85.9588 88.4385C86.7534 88.4385 87.5754 88.1097 88.4248 87.4521C89.2742 86.8219 89.9592 85.9999 90.4798 84.9861C89.466 84.4655 88.7125 83.712 88.2193 82.7256C87.7261 81.7118 87.4795 80.698 87.4795 79.6842C87.4795 78.369 87.822 77.3141 88.507 76.5195C89.192 75.7249 90.0003 75.3276 90.9319 75.3276C91.7265 75.3276 92.3567 75.6564 92.8225 76.314C93.2883 76.9442 93.5212 77.8758 93.5212 79.1088C93.5212 80.013 93.3979 80.9446 93.1513 81.9036C92.9047 82.8626 92.5485 83.7942 92.0827 84.6984C92.2471 84.7258 92.4115 84.7532 92.5759 84.7806C92.7677 84.808 92.9595 84.8217 93.1513 84.8217C94.1377 84.8217 94.9597 84.5888 95.6173 84.123C96.2749 83.6298 96.8229 83.0407 97.2613 82.3557C97.7271 81.6433 98.1107 80.972 98.4121 80.3418L98.9053 80.8761C98.1381 82.7667 97.2202 84.0271 96.1516 84.6573C95.1104 85.2601 94.0692 85.5615 93.028 85.5615C92.8088 85.5615 92.5896 85.5478 92.3704 85.5204C92.1512 85.493 91.932 85.4656 91.7128 85.4382C90.973 86.6986 90.0551 87.7672 88.9591 88.644C87.8905 89.5482 86.6301 90.0003 85.1779 90.0003ZM90.8908 84.1641C91.1922 83.5339 91.4251 82.8763 91.5895 82.1913C91.7539 81.4789 91.8361 80.7528 91.8361 80.013C91.8361 79.054 91.6991 78.3005 91.4251 77.7525C91.1785 77.2045 90.8634 76.9305 90.4798 76.9305C90.0688 76.9305 89.6989 77.2182 89.3701 77.7936C89.0687 78.3416 88.918 79.0403 88.918 79.8897C88.918 80.6295 89.0687 81.4104 89.3701 82.2324C89.6715 83.0544 90.1784 83.6983 90.8908 84.1641ZM86.1232 74.3001C86.8904 73.6973 87.6302 72.9301 88.3426 71.9985C89.0824 71.0669 89.7674 70.0805 90.3976 69.0393C91.0278 67.9707 91.5895 66.9295 92.0827 65.9157C92.5759 64.9019 92.9595 63.984 93.2335 63.162C93.5075 62.34 93.6445 61.7235 93.6445 61.3125C93.6445 61.1755 93.6308 61.0933 93.6034 61.0659C93.576 61.0111 93.5349 60.9837 93.4801 60.9837C93.2609 60.9837 92.8362 61.381 92.206 62.1756C91.6032 62.9428 90.9182 63.984 90.151 65.2992C89.4112 66.587 88.6714 68.0255 87.9316 69.6147C87.1918 71.1765 86.589 72.7383 86.1232 74.3001ZM99.298 98.508C98.613 98.508 98.0102 98.3162 97.4896 97.9326C96.969 97.5764 96.7087 97.0421 96.7087 96.3297C96.7087 95.4529 96.9279 94.672 97.3663 93.987C97.8047 93.302 98.3938 92.6718 99.1336 92.0964C99.8734 91.521 100.723 90.973 101.682 90.4524C102.641 89.9318 103.641 89.4112 104.682 88.8906C105.066 87.8768 105.449 86.7534 105.833 85.5204C106.244 84.26 106.627 82.8763 106.984 81.3693C106.107 82.7941 105.162 84.0271 104.148 85.0683C103.161 86.0821 102.106 86.589 100.983 86.589C100.462 86.589 99.9419 86.4794 99.4213 86.2602C98.9281 86.0136 98.5171 85.6437 98.1883 85.1505C97.8595 84.6573 97.6951 84.0271 97.6951 83.2599C97.6951 82.4927 97.8184 81.6022 98.065 80.5884C98.339 79.5746 98.6678 78.5882 99.0514 77.6292C99.435 76.6702 99.8323 75.8756 100.243 75.2454C100.654 74.6152 101.01 74.3001 101.312 74.3001C101.421 74.3001 101.613 74.3412 101.887 74.4234C102.189 74.5056 102.463 74.6289 102.709 74.7933C102.983 74.9303 103.12 75.081 103.12 75.2454C102.874 75.6016 102.6 76.1085 102.298 76.7661C101.997 77.4237 101.695 78.1635 101.394 78.9855C101.12 79.7801 100.887 80.561 100.695 81.3282C100.504 82.0954 100.408 82.753 100.408 83.301C100.408 83.7942 100.517 84.1915 100.736 84.4929C100.956 84.7943 101.339 84.945 101.887 84.945C102.408 84.945 102.983 84.6984 103.613 84.2052C104.271 83.6846 104.915 83.027 105.545 82.2324C106.203 81.4378 106.806 80.5884 107.354 79.6842C107.436 79.3828 107.504 79.0814 107.559 78.78C107.641 78.4512 107.71 78.1224 107.765 77.7936C107.847 77.41 108.039 76.9716 108.34 76.4784C108.669 75.9578 109.176 75.6975 109.861 75.6975C109.998 75.6975 110.135 75.7112 110.272 75.7386C110.409 75.7386 110.559 75.766 110.724 75.8208C110.724 76.2592 110.587 77.0812 110.313 78.2868C110.066 79.465 109.696 80.8487 109.203 82.4379C108.737 84.0271 108.176 85.6574 107.518 87.3288C108.806 86.8356 110.066 86.0273 111.299 84.9039C112.532 83.7531 113.532 82.2324 114.299 80.3418L114.834 80.7528C114.423 82.068 113.793 83.2188 112.943 84.2052C112.121 85.1642 111.19 85.9999 110.148 86.7123C109.107 87.3973 108.08 87.9727 107.066 88.4385C106.353 90.1921 105.573 91.8361 104.723 93.3705C103.901 94.9049 103.024 96.1379 102.093 97.0695C101.189 98.0285 100.257 98.508 99.298 98.508ZM99.0925 97.1928C99.5035 97.1928 100.188 96.6448 101.147 95.5488C102.134 94.4802 103.175 92.5896 104.271 89.877C103.148 90.4798 102.106 91.0689 101.147 91.6443C100.188 92.2471 99.4213 92.891 98.8459 93.576C98.2705 94.261 97.9828 95.0556 97.9828 95.9598C97.9828 96.179 98.065 96.4393 98.2294 96.7407C98.3938 97.0421 98.6815 97.1928 99.0925 97.1928ZM143.252 91.9731C142.649 91.9731 141.937 91.5895 141.115 90.8223C140.32 90.0825 139.484 89.0961 138.608 87.8631C137.731 86.6575 136.854 85.3286 135.977 83.8764C135.128 82.4242 134.333 80.972 133.593 79.5198C132.881 78.0676 132.278 76.7661 131.785 75.6153C131.018 78.3005 130.278 80.9446 129.566 83.5476C128.853 86.1232 128.182 88.4659 127.552 90.5757C126.867 90.5757 126.236 90.3839 125.661 90.0003C125.113 89.6167 124.839 89.1235 124.839 88.5207C124.839 88.2193 124.908 87.8494 125.045 87.411C125.182 87 125.305 86.6164 125.414 86.2602C126.099 84.0956 126.771 82.0543 127.428 80.1363C128.086 78.2183 128.73 76.3688 129.36 74.5878C129.99 72.8068 130.634 71.0395 131.292 69.2859C131.977 67.5323 132.689 65.765 133.429 63.984C134.169 62.203 134.963 60.3535 135.813 58.4355C134.662 58.6273 133.662 58.915 132.812 59.2986C131.963 59.6548 131.278 59.9973 130.757 60.3261C130.237 60.6275 129.881 60.7782 129.689 60.7782C129.579 60.7782 129.415 60.7234 129.196 60.6138C129.004 60.4768 128.826 60.3261 128.661 60.1617C128.497 59.9699 128.415 59.8055 128.415 59.6685C129.127 59.3671 129.963 59.0383 130.922 58.6821C131.881 58.3259 132.936 58.0245 134.087 57.7779C135.237 57.5313 136.429 57.408 137.662 57.408C138.84 57.408 140.032 57.5587 141.238 57.8601C142.471 58.1341 143.594 58.5862 144.608 59.2164C145.649 59.8192 146.485 60.6138 147.115 61.6002C147.745 62.5592 148.061 63.7237 148.061 65.0937C148.061 66.4363 147.745 67.6008 147.115 68.5872C146.512 69.5462 145.704 70.3545 144.69 71.0121C143.704 71.6697 142.622 72.204 141.443 72.615C140.265 72.9986 139.101 73.3 137.95 73.5192C136.799 73.711 135.758 73.848 134.826 73.9302C133.895 73.985 133.196 74.0124 132.73 74.0124C133.58 75.4646 134.388 76.8757 135.155 78.2457C135.922 79.6157 136.758 80.9857 137.662 82.3557C138.566 83.6983 139.635 85.0546 140.868 86.4246C142.101 87.7946 143.594 89.192 145.348 90.6168C145.184 90.973 144.882 91.2881 144.444 91.5621C144.033 91.8361 143.635 91.9731 143.252 91.9731ZM132.443 73.3548C133.922 73.2726 135.415 73.0397 136.922 72.6561C138.457 72.2451 139.854 71.6834 141.115 70.971C142.375 70.2312 143.389 69.3133 144.156 68.2173C144.923 67.0939 145.307 65.765 145.307 64.2306C145.307 62.7236 144.951 61.5454 144.238 60.696C143.526 59.8192 142.608 59.2027 141.485 58.8465C140.361 58.4629 139.183 58.2711 137.95 58.2711C137.018 60.1617 136.087 62.4359 135.155 65.0937C134.224 67.7241 133.319 70.4778 132.443 73.3548ZM149.614 88.3152C148.436 88.3152 147.6 87.9453 147.107 87.2055C146.614 86.4931 146.367 85.6163 146.367 84.5751C146.367 83.7257 146.504 82.8489 146.778 81.9447C147.052 81.0405 147.409 80.1911 147.847 79.3965C148.313 78.6019 148.82 77.958 149.368 77.4648C149.943 76.9716 150.519 76.725 151.094 76.725C151.231 76.725 151.368 76.7524 151.505 76.8072C151.669 76.8346 151.82 76.8757 151.957 76.9305C151.71 77.1497 151.409 77.5607 151.053 78.1635C150.724 78.7389 150.409 79.4102 150.108 80.1774C149.806 80.9172 149.546 81.657 149.327 82.3968C149.135 83.1366 149.039 83.7668 149.039 84.2874C149.039 85.1094 149.176 85.7122 149.45 86.0958C149.724 86.452 150.08 86.6301 150.519 86.6301C151.094 86.6301 151.779 86.3287 152.574 85.7259C153.368 85.0957 154.149 84.3011 154.916 83.3421C154.149 82.7119 153.546 81.8899 153.108 80.8761C152.697 79.8349 152.491 78.78 152.491 77.7114C152.491 76.8072 152.642 75.9578 152.943 75.1632C153.272 74.3686 153.738 73.7384 154.341 73.2726C154.944 72.7794 155.67 72.5328 156.519 72.5328C157.643 72.5328 158.396 72.8342 158.78 73.437C159.163 74.0398 159.355 74.7933 159.355 75.6975C159.355 76.7661 159.095 77.958 158.574 79.2732C158.054 80.561 157.396 81.8077 156.601 83.0133C157.095 83.2873 157.615 83.4243 158.163 83.4243C158.602 83.4243 159.095 83.3421 159.643 83.1777C160.191 82.9859 160.725 82.6708 161.246 82.2324C161.794 81.794 162.232 81.2049 162.561 80.4651L163.054 80.8761C162.506 82.1639 161.725 83.0818 160.711 83.6298C159.725 84.1504 158.78 84.4107 157.875 84.4107C157.519 84.4107 157.177 84.3833 156.848 84.3285C156.519 84.2463 156.204 84.1367 155.903 83.9997C154.971 85.2327 153.944 86.2602 152.82 87.0822C151.724 87.9042 150.656 88.3152 149.614 88.3152ZM155.656 82.2735C156.341 81.2597 156.903 80.2048 157.341 79.1088C157.807 77.9854 158.04 76.9305 158.04 75.9441C158.04 75.1495 157.917 74.5741 157.67 74.2179C157.451 73.8343 157.163 73.6425 156.807 73.6425C156.259 73.6425 155.697 74.0398 155.122 74.8344C154.546 75.629 154.259 76.6291 154.259 77.8347C154.259 78.6293 154.368 79.4376 154.587 80.2596C154.834 81.0542 155.19 81.7255 155.656 82.2735ZM166.105 89.0961C164.817 89.0961 163.79 88.8084 163.023 88.233C162.283 87.685 161.762 87 161.461 86.178C161.132 85.356 160.968 84.534 160.968 83.712C160.968 82.89 161.077 82.2598 161.296 81.8214C161.516 81.383 161.776 81.0542 162.077 80.835C162.406 80.6158 162.707 80.4514 162.981 80.3418C163.283 80.2322 163.488 80.1226 163.598 80.013C164.42 79.1088 165.173 78.1635 165.858 77.1771C166.543 76.1907 167.146 75.1495 167.667 74.0535V73.5603C167.667 72.5465 167.831 71.8341 168.16 71.4231C168.516 70.9847 168.886 70.7655 169.27 70.7655C169.489 70.7655 169.653 70.8203 169.763 70.9299C169.873 71.0395 169.927 71.1628 169.927 71.2998C169.927 71.4368 169.886 71.656 169.804 71.9574C169.722 72.2588 169.681 72.6424 169.681 73.1082C169.681 74.0124 169.859 74.9988 170.215 76.0674C170.571 77.1086 170.927 78.2183 171.284 79.3965C171.64 80.5473 171.818 81.7529 171.818 83.0133C171.818 83.3695 171.791 83.7257 171.736 84.0819C171.708 84.4107 171.654 84.7258 171.571 85.0272C172.53 84.8628 173.435 84.4381 174.284 83.7531C175.133 83.0407 175.955 81.9173 176.75 80.3829L177.12 80.7939C176.599 82.3009 175.818 83.4517 174.777 84.2463C173.736 85.0135 172.599 85.493 171.366 85.6848C170.927 86.863 170.229 87.7261 169.27 88.2741C168.338 88.8221 167.283 89.0961 166.105 89.0961ZM166.187 87.6576C166.516 87.6576 166.954 87.548 167.502 87.3288C168.05 87.1096 168.475 86.5479 168.777 85.6437C167.626 85.4245 166.598 84.9724 165.694 84.2874C164.817 83.6024 164.16 82.9174 163.721 82.2324C163.118 82.2598 162.817 82.7393 162.817 83.6709C162.817 84.6573 163.105 85.5752 163.68 86.4246C164.283 87.2466 165.119 87.6576 166.187 87.6576ZM168.982 84.9861C169.037 84.7121 169.078 84.4244 169.105 84.123C169.133 83.8216 169.146 83.4654 169.146 83.0544C169.146 81.7666 168.982 80.4925 168.653 79.2321C168.352 77.9443 168.092 76.7387 167.872 75.6153C167.242 76.6565 166.571 77.6566 165.858 78.6156C165.173 79.5472 164.516 80.3281 163.886 80.9583C164.297 81.8351 164.927 82.6571 165.776 83.4243C166.653 84.1915 167.722 84.7121 168.982 84.9861ZM180.397 88.8084C178.725 88.8084 177.465 88.3426 176.615 87.411C175.793 86.5068 175.382 85.3834 175.382 84.0408C175.382 82.8078 175.684 81.5063 176.287 80.1363C176.917 78.7663 177.739 77.4785 178.753 76.2729C179.794 75.0673 180.931 74.0946 182.164 73.3548C183.397 72.5876 184.616 72.204 185.822 72.204C186.452 72.204 187.027 72.3684 187.548 72.6972C188.096 73.026 188.37 73.6973 188.37 74.7111C188.37 75.7523 188.055 76.7387 187.425 77.6703C186.822 78.5745 186.014 79.3828 185 80.0952C184.013 80.8076 182.917 81.3967 181.712 81.8625C180.534 82.3009 179.355 82.5749 178.177 82.6845C178.122 82.9585 178.081 83.2188 178.054 83.4654C178.027 83.712 178.013 83.9449 178.013 84.1641C178.013 84.5751 178.054 84.9861 178.136 85.3971C178.246 85.8081 178.424 86.1917 178.67 86.5479C178.917 86.8767 179.246 87.137 179.657 87.3288C180.095 87.5206 180.63 87.6165 181.26 87.6165C182.438 87.6165 183.602 87.2877 184.753 86.6301C185.904 85.9451 186.973 85.0546 187.959 83.9586C188.945 82.8626 189.781 81.657 190.466 80.3418L190.959 80.7117C190.22 82.3557 189.274 83.7805 188.123 84.9861C187 86.1917 185.767 87.1233 184.424 87.7809C183.109 88.4659 181.767 88.8084 180.397 88.8084ZM178.383 81.9036C179.123 81.657 179.958 81.3008 180.89 80.835C181.821 80.3418 182.712 79.7664 183.561 79.1088C184.438 78.4512 185.151 77.7251 185.699 76.9305C186.274 76.1359 186.562 75.3002 186.562 74.4234C186.562 74.122 186.507 73.8891 186.397 73.7247C186.288 73.5603 186.055 73.4781 185.699 73.4781C185.041 73.4781 184.342 73.7384 183.602 74.259C182.863 74.7522 182.15 75.4098 181.465 76.2318C180.78 77.0538 180.164 77.958 179.616 78.9444C179.068 79.9308 178.657 80.9172 178.383 81.9036Z" fill="black"/>
</g>
<defs>
<filter id="filter0_d_2552_4905" x="76.9446" y="57.408" width="118.015" height="49.1" filterUnits="userSpaceOnUse" color-interpolation-filters="sRGB">
<feFlood flood-opacity="0" result="BackgroundImageFix"/>
<feColorMatrix in="SourceAlpha" type="matrix" values="0 0 0 0 0 0 0 0 0 0 0 0 0 0 0 0 0 0 127 0" result="hardAlpha"/>
<feOffset dy="4"/>
<feGaussianBlur stdDeviation="2"/>
<feComposite in2="hardAlpha" operator="out"/>
<feColorMatrix type="matrix" values="0 0 0 0 0 0 0 0 0 0 0 0 0 0 0 0 0 0 0.25 0"/>
<feBlend mode="normal" in2="BackgroundImageFix" result="effect1_dropShadow_2552_4905"/>
<feBlend mode="normal" in="SourceGraphic" in2="effect1_dropShadow_2552_4905" result="shape"/>
</filter>
</defs>
</svg>
