<svg width="522" height="137" viewBox="0 0 522 137" fill="none" xmlns="http://www.w3.org/2000/svg">
<g clip-path="url(#clip0_2551_15196)">
<rect width="522" height="137" fill="white"/>
<path d="M143.142 81V41.4032H154.978C158.96 41.4032 162.349 41.995 165.147 43.1786C167.944 44.3622 170.186 45.9403 171.872 47.913C173.593 49.8857 174.849 52.0915 175.638 54.5304C176.427 56.9693 176.821 59.4262 176.821 61.901C176.821 64.8421 176.283 67.4962 175.207 69.8634C174.167 72.1947 172.732 74.2033 170.903 75.889C169.074 77.5389 166.958 78.8121 164.555 79.7088C162.152 80.5696 159.605 81 156.915 81H143.142ZM150.943 73.468H155.57C157.543 73.468 159.336 73.2169 160.95 72.7148C162.564 72.1768 163.945 71.4057 165.093 70.4014C166.276 69.3971 167.173 68.1418 167.783 66.6354C168.428 65.0931 168.751 63.3357 168.751 61.363C168.751 58.7806 168.321 56.6824 167.46 55.0684C166.635 53.4185 165.595 52.1453 164.34 51.2486C163.12 50.3519 161.865 49.7422 160.574 49.4194C159.282 49.0607 158.189 48.8814 157.292 48.8814H150.943V73.468ZM184.648 41.4032H211.656V48.9352H192.449V57.3818H209.45V64.9138H192.449V73.468H212.409V81H184.648V41.4032ZM241.623 50.9796C240.117 50.1547 238.575 49.4732 236.997 48.9352C235.454 48.3972 234.002 48.1282 232.639 48.1282C230.953 48.1282 229.626 48.4689 228.658 49.1504C227.689 49.8319 227.205 50.8541 227.205 52.217C227.205 53.1495 227.564 53.9924 228.281 54.7456C229.034 55.4629 229.985 56.1085 231.132 56.6824C232.316 57.2563 233.535 57.7763 234.791 58.2426C235.938 58.673 237.068 59.1931 238.18 59.8028C239.328 60.3767 240.35 61.1119 241.247 62.0086C242.143 62.8694 242.861 63.9633 243.399 65.2904C243.937 66.5816 244.206 68.1777 244.206 70.0786C244.206 72.0871 243.686 73.9522 242.646 75.6738C241.605 77.3954 240.081 78.7942 238.073 79.8702C236.064 80.9103 233.589 81.4304 230.648 81.4304C229.142 81.4304 227.599 81.2869 226.021 81C224.479 80.6772 222.955 80.2109 221.448 79.6012C219.942 78.9556 218.489 78.1486 217.091 77.1802L220.534 71.1008C221.466 71.7823 222.471 72.392 223.547 72.93C224.658 73.4321 225.77 73.8267 226.882 74.1136C227.994 74.4005 229.016 74.544 229.949 74.544C230.881 74.544 231.814 74.4185 232.746 74.1674C233.715 73.8805 234.504 73.4142 235.114 72.7686C235.759 72.123 236.082 71.2263 236.082 70.0786C236.082 69.2895 235.813 68.5722 235.275 67.9266C234.773 67.281 234.073 66.6892 233.177 66.1512C232.316 65.6132 231.365 65.1469 230.325 64.7524C229.106 64.2861 227.851 63.7481 226.559 63.1384C225.268 62.5287 224.049 61.7934 222.901 60.9326C221.789 60.0359 220.874 58.942 220.157 57.6508C219.476 56.3237 219.135 54.7097 219.135 52.8088C219.135 50.5133 219.637 48.5227 220.641 46.837C221.681 45.1513 223.134 43.8242 224.999 42.8558C226.864 41.8515 229.016 41.2956 231.455 41.188C234.647 41.188 237.23 41.5646 239.202 42.3178C241.211 43.071 243.004 43.9677 244.582 45.0078L241.623 50.9796ZM251.846 41.4032H259.647V81H251.846V41.4032ZM301.985 77.0188C301.519 77.5209 300.784 78.041 299.779 78.579C298.775 79.0811 297.61 79.5474 296.282 79.9778C294.991 80.4082 293.664 80.7489 292.301 81C290.938 81.2869 289.647 81.4304 288.428 81.4304C285.2 81.4304 282.294 80.9641 279.712 80.0316C277.13 79.0632 274.924 77.7361 273.095 76.0504C271.265 74.3288 269.867 72.3023 268.898 69.971C267.93 67.6397 267.446 65.0931 267.446 62.3314C267.446 58.7089 267.984 55.5705 269.06 52.9164C270.172 50.2264 271.66 48.0027 273.525 46.2452C275.426 44.4519 277.596 43.1248 280.035 42.264C282.51 41.4032 285.092 40.9728 287.782 40.9728C290.329 40.9728 292.66 41.2597 294.776 41.8336C296.892 42.3716 298.686 43.0531 300.156 43.878L297.627 51.141C296.982 50.7823 296.121 50.4237 295.045 50.065C293.969 49.7063 292.875 49.4194 291.763 49.2042C290.651 48.9531 289.665 48.8276 288.804 48.8276C286.652 48.8276 284.751 49.0966 283.101 49.6346C281.452 50.1726 280.053 50.9796 278.905 52.0556C277.793 53.1316 276.95 54.4766 276.376 56.0906C275.803 57.6687 275.516 59.5159 275.516 61.632C275.516 63.4971 275.838 65.1828 276.484 66.6892C277.13 68.1597 278.026 69.4151 279.174 70.4552C280.358 71.4953 281.739 72.2844 283.317 72.8224C284.931 73.3604 286.706 73.6294 288.643 73.6294C289.755 73.6294 290.777 73.5577 291.709 73.4142C292.642 73.2349 293.431 72.9659 294.077 72.6072V67.819H287.244V60.287H301.985V77.0188ZM346.301 82.614L316.281 55.4988L318.594 56.79L318.756 81H310.847V39.843H311.17L340.545 66.8506L338.823 66.0974L338.662 41.4032H346.517V82.614H346.301ZM377.857 50.9796C376.351 50.1547 374.808 49.4732 373.23 48.9352C371.688 48.3972 370.235 48.1282 368.873 48.1282C367.187 48.1282 365.86 48.4689 364.891 49.1504C363.923 49.8319 363.439 50.8541 363.439 52.217C363.439 53.1495 363.797 53.9924 364.515 54.7456C365.268 55.4629 366.218 56.1085 367.366 56.6824C368.55 57.2563 369.769 57.7763 371.025 58.2426C372.172 58.673 373.302 59.1931 374.414 59.8028C375.562 60.3767 376.584 61.1119 377.481 62.0086C378.377 62.8694 379.095 63.9633 379.633 65.2904C380.171 66.5816 380.44 68.1777 380.44 70.0786C380.44 72.0871 379.919 73.9522 378.879 75.6738C377.839 77.3954 376.315 78.7942 374.306 79.8702C372.298 80.9103 369.823 81.4304 366.882 81.4304C365.376 81.4304 363.833 81.2869 362.255 81C360.713 80.6772 359.189 80.2109 357.682 79.6012C356.176 78.9556 354.723 78.1486 353.324 77.1802L356.768 71.1008C357.7 71.7823 358.704 72.392 359.78 72.93C360.892 73.4321 362.004 73.8267 363.116 74.1136C364.228 74.4005 365.25 74.544 366.183 74.544C367.115 74.544 368.048 74.4185 368.98 74.1674C369.949 73.8805 370.738 73.4142 371.347 72.7686C371.993 72.123 372.316 71.2263 372.316 70.0786C372.316 69.2895 372.047 68.5722 371.509 67.9266C371.007 67.281 370.307 66.6892 369.411 66.1512C368.55 65.6132 367.599 65.1469 366.559 64.7524C365.34 64.2861 364.084 63.7481 362.793 63.1384C361.502 62.5287 360.282 61.7934 359.135 60.9326C358.023 60.0359 357.108 58.942 356.391 57.6508C355.709 56.3237 355.369 54.7097 355.369 52.8088C355.369 50.5133 355.871 48.5227 356.875 46.837C357.915 45.1513 359.368 43.8242 361.233 42.8558C363.098 41.8515 365.25 41.2956 367.689 41.188C370.881 41.188 373.463 41.5646 375.436 42.3178C377.445 43.071 379.238 43.9677 380.816 45.0078L377.857 50.9796Z" fill="#228662" fill-opacity="0.5"/>
<g filter="url(#filter0_d_2551_15196)">
<path d="M210.178 103C208.753 103 207.684 102.535 206.972 101.603C206.287 100.671 205.945 99.4109 205.945 97.8217C205.945 96.4517 206.177 94.8351 206.643 92.9719C207.109 91.1087 207.726 89.1633 208.493 87.1357C209.26 85.0807 210.109 83.0805 211.041 81.1351C212 79.1897 212.959 77.4361 213.918 75.8743C214.877 74.2851 215.781 73.0247 216.631 72.0931C217.48 71.1341 218.179 70.6546 218.727 70.6546C219.192 70.6546 219.521 70.9423 219.713 71.5177C219.932 72.0931 220.042 72.6685 220.042 73.2439C220.042 74.0111 219.877 74.9427 219.549 76.0387C219.22 77.1347 218.754 78.3129 218.151 79.5733C217.548 80.8063 216.85 82.0256 216.055 83.2312C215.261 84.4368 214.397 85.5465 213.466 86.5603C212.562 87.5467 211.63 88.3276 210.671 88.903C210.507 89.2044 210.26 89.8346 209.931 90.7936C209.63 91.7252 209.342 92.8075 209.068 94.0405C208.822 95.2461 208.698 96.4243 208.698 97.5751C208.698 98.6985 208.863 99.6164 209.191 100.329C209.548 101.069 210.137 101.438 210.959 101.438C211.753 101.438 212.575 101.11 213.425 100.452C214.274 99.8219 214.959 98.9999 215.48 97.9861C214.466 97.4655 213.712 96.712 213.219 95.7256C212.726 94.7118 212.479 93.698 212.479 92.6842C212.479 91.369 212.822 90.3141 213.507 89.5195C214.192 88.7249 215 88.3276 215.932 88.3276C216.726 88.3276 217.357 88.6564 217.822 89.314C218.288 89.9442 218.521 90.8758 218.521 92.1088C218.521 93.013 218.398 93.9446 218.151 94.9036C217.905 95.8626 217.548 96.7942 217.083 97.6984C217.247 97.7258 217.411 97.7532 217.576 97.7806C217.768 97.808 217.959 97.8217 218.151 97.8217C219.138 97.8217 219.96 97.5888 220.617 97.123C221.275 96.6298 221.823 96.0407 222.261 95.3557C222.727 94.6433 223.111 93.972 223.412 93.3418L223.905 93.8761C223.138 95.7667 222.22 97.0271 221.152 97.6573C220.11 98.2601 219.069 98.5615 218.028 98.5615C217.809 98.5615 217.59 98.5478 217.37 98.5204C217.151 98.493 216.932 98.4656 216.713 98.4382C215.973 99.6986 215.055 100.767 213.959 101.644C212.89 102.548 211.63 103 210.178 103ZM215.891 97.1641C216.192 96.5339 216.425 95.8763 216.589 95.1913C216.754 94.4789 216.836 93.7528 216.836 93.013C216.836 92.054 216.699 91.3005 216.425 90.7525C216.178 90.2045 215.863 89.9305 215.48 89.9305C215.069 89.9305 214.699 90.2182 214.37 90.7936C214.069 91.3416 213.918 92.0403 213.918 92.8897C213.918 93.6295 214.069 94.4104 214.37 95.2324C214.671 96.0544 215.178 96.6983 215.891 97.1641ZM211.123 87.3001C211.89 86.6973 212.63 85.9301 213.343 84.9985C214.082 84.0669 214.767 83.0805 215.398 82.0393C216.028 80.9707 216.589 79.9295 217.083 78.9157C217.576 77.9019 217.959 76.984 218.233 76.162C218.507 75.34 218.644 74.7235 218.644 74.3125C218.644 74.1755 218.631 74.0933 218.603 74.0659C218.576 74.0111 218.535 73.9837 218.48 73.9837C218.261 73.9837 217.836 74.381 217.206 75.1756C216.603 75.9428 215.918 76.984 215.151 78.2992C214.411 79.587 213.671 81.0255 212.932 82.6147C212.192 84.1765 211.589 85.7383 211.123 87.3001ZM224.298 111.508C223.613 111.508 223.01 111.316 222.49 110.933C221.969 110.576 221.709 110.042 221.709 109.33C221.709 108.453 221.928 107.672 222.366 106.987C222.805 106.302 223.394 105.672 224.134 105.096C224.873 104.521 225.723 103.973 226.682 103.452C227.641 102.932 228.641 102.411 229.682 101.891C230.066 100.877 230.449 99.7534 230.833 98.5204C231.244 97.26 231.627 95.8763 231.984 94.3693C231.107 95.7941 230.162 97.0271 229.148 98.0683C228.161 99.0821 227.106 99.589 225.983 99.589C225.462 99.589 224.942 99.4794 224.421 99.2602C223.928 99.0136 223.517 98.6437 223.188 98.1505C222.859 97.6573 222.695 97.0271 222.695 96.2599C222.695 95.4927 222.818 94.6022 223.065 93.5884C223.339 92.5746 223.668 91.5882 224.051 90.6292C224.435 89.6702 224.832 88.8756 225.243 88.2454C225.654 87.6152 226.01 87.3001 226.312 87.3001C226.421 87.3001 226.613 87.3412 226.887 87.4234C227.189 87.5056 227.463 87.6289 227.709 87.7933C227.983 87.9303 228.12 88.081 228.12 88.2454C227.874 88.6016 227.6 89.1085 227.298 89.7661C226.997 90.4237 226.695 91.1635 226.394 91.9855C226.12 92.7801 225.887 93.561 225.695 94.3282C225.504 95.0954 225.408 95.753 225.408 96.301C225.408 96.7942 225.517 97.1915 225.736 97.4929C225.956 97.7943 226.339 97.945 226.887 97.945C227.408 97.945 227.983 97.6984 228.613 97.2052C229.271 96.6846 229.915 96.027 230.545 95.2324C231.203 94.4378 231.806 93.5884 232.354 92.6842C232.436 92.3828 232.504 92.0814 232.559 91.78C232.641 91.4512 232.71 91.1224 232.765 90.7936C232.847 90.41 233.039 89.9716 233.34 89.4784C233.669 88.9578 234.176 88.6975 234.861 88.6975C234.998 88.6975 235.135 88.7112 235.272 88.7386C235.409 88.7386 235.559 88.766 235.724 88.8208C235.724 89.2592 235.587 90.0812 235.313 91.2868C235.066 92.465 234.696 93.8487 234.203 95.4379C233.737 97.0271 233.176 98.6574 232.518 100.329C233.806 99.8356 235.066 99.0273 236.299 97.9039C237.532 96.7531 238.532 95.2324 239.299 93.3418L239.834 93.7528C239.423 95.068 238.793 96.2188 237.943 97.2052C237.121 98.1642 236.19 98.9999 235.148 99.7123C234.107 100.397 233.08 100.973 232.066 101.438C231.353 103.192 230.573 104.836 229.723 106.37C228.901 107.905 228.024 109.138 227.093 110.069C226.189 111.028 225.257 111.508 224.298 111.508ZM224.092 110.193C224.503 110.193 225.188 109.645 226.147 108.549C227.134 107.48 228.175 105.59 229.271 102.877C228.148 103.48 227.106 104.069 226.147 104.644C225.188 105.247 224.421 105.891 223.846 106.576C223.27 107.261 222.983 108.056 222.983 108.96C222.983 109.179 223.065 109.439 223.229 109.741C223.394 110.042 223.681 110.193 224.092 110.193ZM268.252 104.973C267.649 104.973 266.937 104.59 266.115 103.822C265.32 103.082 264.484 102.096 263.608 100.863C262.731 99.6575 261.854 98.3286 260.977 96.8764C260.128 95.4242 259.333 93.972 258.593 92.5198C257.881 91.0676 257.278 89.7661 256.785 88.6153C256.018 91.3005 255.278 93.9446 254.566 96.5476C253.853 99.1232 253.182 101.466 252.552 103.576C251.867 103.576 251.236 103.384 250.661 103C250.113 102.617 249.839 102.124 249.839 101.521C249.839 101.219 249.908 100.849 250.045 100.411C250.182 100 250.305 99.6164 250.414 99.2602C251.099 97.0956 251.771 95.0543 252.428 93.1363C253.086 91.2183 253.73 89.3688 254.36 87.5878C254.99 85.8068 255.634 84.0395 256.292 82.2859C256.977 80.5323 257.689 78.765 258.429 76.984C259.169 75.203 259.963 73.3535 260.813 71.4355C259.662 71.6273 258.662 71.915 257.812 72.2986C256.963 72.6548 256.278 72.9973 255.757 73.3261C255.237 73.6275 254.881 73.7782 254.689 73.7782C254.579 73.7782 254.415 73.7234 254.196 73.6138C254.004 73.4768 253.826 73.3261 253.661 73.1617C253.497 72.9699 253.415 72.8055 253.415 72.6685C254.127 72.3671 254.963 72.0383 255.922 71.6821C256.881 71.3259 257.936 71.0245 259.087 70.7779C260.237 70.5313 261.429 70.408 262.662 70.408C263.84 70.408 265.032 70.5587 266.238 70.8601C267.471 71.1341 268.594 71.5862 269.608 72.2164C270.649 72.8192 271.485 73.6138 272.115 74.6002C272.745 75.5592 273.061 76.7237 273.061 78.0937C273.061 79.4363 272.745 80.6008 272.115 81.5872C271.512 82.5462 270.704 83.3545 269.69 84.0121C268.704 84.6697 267.622 85.204 266.443 85.615C265.265 85.9986 264.101 86.3 262.95 86.5192C261.799 86.711 260.758 86.848 259.826 86.9302C258.895 86.985 258.196 87.0124 257.73 87.0124C258.58 88.4646 259.388 89.8757 260.155 91.2457C260.922 92.6157 261.758 93.9857 262.662 95.3557C263.566 96.6983 264.635 98.0546 265.868 99.4246C267.101 100.795 268.594 102.192 270.348 103.617C270.184 103.973 269.882 104.288 269.444 104.562C269.033 104.836 268.635 104.973 268.252 104.973ZM257.443 86.3548C258.922 86.2726 260.415 86.0397 261.922 85.6561C263.457 85.2451 264.854 84.6834 266.115 83.971C267.375 83.2312 268.389 82.3133 269.156 81.2173C269.923 80.0939 270.307 78.765 270.307 77.2306C270.307 75.7236 269.951 74.5454 269.238 73.696C268.526 72.8192 267.608 72.2027 266.485 71.8465C265.361 71.4629 264.183 71.2711 262.95 71.2711C262.018 73.1617 261.087 75.4359 260.155 78.0937C259.224 80.7241 258.319 83.4778 257.443 86.3548ZM274.614 101.315C273.436 101.315 272.6 100.945 272.107 100.206C271.614 99.4931 271.367 98.6163 271.367 97.5751C271.367 96.7257 271.504 95.8489 271.778 94.9447C272.052 94.0405 272.409 93.1911 272.847 92.3965C273.313 91.6019 273.82 90.958 274.368 90.4648C274.943 89.9716 275.519 89.725 276.094 89.725C276.231 89.725 276.368 89.7524 276.505 89.8072C276.669 89.8346 276.82 89.8757 276.957 89.9305C276.71 90.1497 276.409 90.5607 276.053 91.1635C275.724 91.7389 275.409 92.4102 275.108 93.1774C274.806 93.9172 274.546 94.657 274.327 95.3968C274.135 96.1366 274.039 96.7668 274.039 97.2874C274.039 98.1094 274.176 98.7122 274.45 99.0958C274.724 99.452 275.08 99.6301 275.519 99.6301C276.094 99.6301 276.779 99.3287 277.574 98.7259C278.368 98.0957 279.149 97.3011 279.916 96.3421C279.149 95.7119 278.546 94.8899 278.108 93.8761C277.697 92.8349 277.491 91.78 277.491 90.7114C277.491 89.8072 277.642 88.9578 277.943 88.1632C278.272 87.3686 278.738 86.7384 279.341 86.2726C279.944 85.7794 280.67 85.5328 281.519 85.5328C282.643 85.5328 283.396 85.8342 283.78 86.437C284.163 87.0398 284.355 87.7933 284.355 88.6975C284.355 89.7661 284.095 90.958 283.574 92.2732C283.054 93.561 282.396 94.8077 281.601 96.0133C282.095 96.2873 282.615 96.4243 283.163 96.4243C283.602 96.4243 284.095 96.3421 284.643 96.1777C285.191 95.9859 285.725 95.6708 286.246 95.2324C286.794 94.794 287.232 94.2049 287.561 93.4651L288.054 93.8761C287.506 95.1639 286.725 96.0818 285.711 96.6298C284.725 97.1504 283.78 97.4107 282.875 97.4107C282.519 97.4107 282.177 97.3833 281.848 97.3285C281.519 97.2463 281.204 97.1367 280.903 96.9997C279.971 98.2327 278.944 99.2602 277.82 100.082C276.724 100.904 275.656 101.315 274.614 101.315ZM280.656 95.2735C281.341 94.2597 281.903 93.2048 282.341 92.1088C282.807 90.9854 283.04 89.9305 283.04 88.9441C283.04 88.1495 282.917 87.5741 282.67 87.2179C282.451 86.8343 282.163 86.6425 281.807 86.6425C281.259 86.6425 280.697 87.0398 280.122 87.8344C279.546 88.629 279.259 89.6291 279.259 90.8347C279.259 91.6293 279.368 92.4376 279.587 93.2596C279.834 94.0542 280.19 94.7255 280.656 95.2735ZM291.105 102.096C289.817 102.096 288.79 101.808 288.023 101.233C287.283 100.685 286.762 100 286.461 99.178C286.132 98.356 285.968 97.534 285.968 96.712C285.968 95.89 286.077 95.2598 286.296 94.8214C286.516 94.383 286.776 94.0542 287.077 93.835C287.406 93.6158 287.707 93.4514 287.981 93.3418C288.283 93.2322 288.488 93.1226 288.598 93.013C289.42 92.1088 290.173 91.1635 290.858 90.1771C291.543 89.1907 292.146 88.1495 292.667 87.0535V86.5603C292.667 85.5465 292.831 84.8341 293.16 84.4231C293.516 83.9847 293.886 83.7655 294.27 83.7655C294.489 83.7655 294.653 83.8203 294.763 83.9299C294.873 84.0395 294.927 84.1628 294.927 84.2998C294.927 84.4368 294.886 84.656 294.804 84.9574C294.722 85.2588 294.681 85.6424 294.681 86.1082C294.681 87.0124 294.859 87.9988 295.215 89.0674C295.571 90.1086 295.927 91.2183 296.284 92.3965C296.64 93.5473 296.818 94.7529 296.818 96.0133C296.818 96.3695 296.791 96.7257 296.736 97.0819C296.708 97.4107 296.654 97.7258 296.571 98.0272C297.53 97.8628 298.435 97.4381 299.284 96.7531C300.133 96.0407 300.955 94.9173 301.75 93.3829L302.12 93.7939C301.599 95.3009 300.818 96.4517 299.777 97.2463C298.736 98.0135 297.599 98.493 296.366 98.6848C295.927 99.863 295.229 100.726 294.27 101.274C293.338 101.822 292.283 102.096 291.105 102.096ZM291.187 100.658C291.516 100.658 291.954 100.548 292.502 100.329C293.05 100.11 293.475 99.5479 293.777 98.6437C292.626 98.4245 291.598 97.9724 290.694 97.2874C289.817 96.6024 289.16 95.9174 288.721 95.2324C288.118 95.2598 287.817 95.7393 287.817 96.6709C287.817 97.6573 288.105 98.5752 288.68 99.4246C289.283 100.247 290.119 100.658 291.187 100.658ZM293.982 97.9861C294.037 97.7121 294.078 97.4244 294.105 97.123C294.133 96.8216 294.146 96.4654 294.146 96.0544C294.146 94.7666 293.982 93.4925 293.653 92.2321C293.352 90.9443 293.092 89.7387 292.872 88.6153C292.242 89.6565 291.571 90.6566 290.858 91.6156C290.173 92.5472 289.516 93.3281 288.886 93.9583C289.297 94.8351 289.927 95.6571 290.776 96.4243C291.653 97.1915 292.722 97.7121 293.982 97.9861ZM305.397 101.808C303.725 101.808 302.465 101.343 301.615 100.411C300.793 99.5068 300.382 98.3834 300.382 97.0408C300.382 95.8078 300.684 94.5063 301.287 93.1363C301.917 91.7663 302.739 90.4785 303.753 89.2729C304.794 88.0673 305.931 87.0946 307.164 86.3548C308.397 85.5876 309.616 85.204 310.822 85.204C311.452 85.204 312.027 85.3684 312.548 85.6972C313.096 86.026 313.37 86.6973 313.37 87.7111C313.37 88.7523 313.055 89.7387 312.425 90.6703C311.822 91.5745 311.014 92.3828 310 93.0952C309.013 93.8076 307.917 94.3967 306.712 94.8625C305.534 95.3009 304.355 95.5749 303.177 95.6845C303.122 95.9585 303.081 96.2188 303.054 96.4654C303.027 96.712 303.013 96.9449 303.013 97.1641C303.013 97.5751 303.054 97.9861 303.136 98.3971C303.246 98.8081 303.424 99.1917 303.67 99.5479C303.917 99.8767 304.246 100.137 304.657 100.329C305.095 100.521 305.63 100.617 306.26 100.617C307.438 100.617 308.602 100.288 309.753 99.6301C310.904 98.9451 311.973 98.0546 312.959 96.9586C313.945 95.8626 314.781 94.657 315.466 93.3418L315.959 93.7117C315.22 95.3557 314.274 96.7805 313.123 97.9861C312 99.1917 310.767 100.123 309.424 100.781C308.109 101.466 306.767 101.808 305.397 101.808ZM303.383 94.9036C304.123 94.657 304.958 94.3008 305.89 93.835C306.821 93.3418 307.712 92.7664 308.561 92.1088C309.438 91.4512 310.151 90.7251 310.699 89.9305C311.274 89.1359 311.562 88.3002 311.562 87.4234C311.562 87.122 311.507 86.8891 311.397 86.7247C311.288 86.5603 311.055 86.4781 310.699 86.4781C310.041 86.4781 309.342 86.7384 308.602 87.259C307.863 87.7522 307.15 88.4098 306.465 89.2318C305.78 90.0538 305.164 90.958 304.616 91.9444C304.068 92.9308 303.657 93.9172 303.383 94.9036Z" fill="black"/>
</g>
<g clip-path="url(#clip1_2551_15196)">
<path d="M325.663 106.432C321.476 112.549 310.116 112.932 308.253 121.054" stroke="black" stroke-opacity="0.9" stroke-width="2.4" stroke-linecap="round" stroke-linejoin="round"/>
<path d="M326.328 105.694C325.533 104.796 324.806 103.798 324.281 102.71C323.731 101.574 323.126 100.581 322.939 99.3067C321.307 88.1081 332.342 104.596 328.002 105.851" stroke="black" stroke-opacity="0.9" stroke-width="2.4" stroke-linecap="round" stroke-linejoin="round"/>
<path d="M329.479 93.8743C330.147 93.3999 330.985 92.9075 331.821 93.3795C332.824 93.9465 331.897 94.1451 331.878 94.7769C331.873 94.9385 332.35 94.6903 332.444 94.7009C333.224 94.7864 333.95 95.1173 334.531 95.6817C335.127 96.2613 333.822 97.5993 333.326 97.7526C328.331 99.2947 327.55 93.0264 326.058 95.054" stroke="black" stroke-opacity="0.9" stroke-width="2.4" stroke-linecap="round" stroke-linejoin="round"/>
<path d="M335.506 96.8884C335.259 100.563 330.251 100.31 328.799 103.417" stroke="black" stroke-opacity="0.9" stroke-width="2.4" stroke-linecap="round" stroke-linejoin="round"/>
<path d="M332.311 91.2849C330.81 87.5904 323.815 92.2518 323.615 93.8706" stroke="black" stroke-opacity="0.9" stroke-width="2.4" stroke-linecap="round" stroke-linejoin="round"/>
<path d="M321.927 94.676C315.87 94.8971 320.797 102.772 323.482 104.398" stroke="black" stroke-opacity="0.9" stroke-width="2.4" stroke-linecap="round" stroke-linejoin="round"/>
<path d="M335.031 93.9873C336.817 94.1776 338.448 94.8556 339.227 96.617C341.167 101.003 331.589 102.288 329.484 105.149" stroke="black" stroke-opacity="0.9" stroke-width="2.4" stroke-linecap="round" stroke-linejoin="round"/>
<path d="M336.112 102.247C338.315 107.439 332.198 106.966 329.258 106.007" stroke="black" stroke-opacity="0.9" stroke-width="2.4" stroke-linecap="round" stroke-linejoin="round"/>
<path d="M319.683 112.064C324.11 110.703 328.665 116.898 332.381 115.675" stroke="black" stroke-opacity="0.9" stroke-width="2.4" stroke-linecap="round" stroke-linejoin="round"/>
<path d="M316.608 111.234C315.651 109.165 312.924 107.097 310.835 106.004" stroke="black" stroke-opacity="0.9" stroke-width="2.4" stroke-linecap="round" stroke-linejoin="round"/>
<path d="M314.987 108.44C312.115 99.9505 304.285 108.579 314.585 109.255Z" fill="#90C3B0"/>
<path d="M314.987 108.44C312.115 99.9505 304.285 108.579 314.585 109.255" stroke="black" stroke-opacity="0.9" stroke-width="2.4" stroke-linecap="round" stroke-linejoin="round"/>
<path d="M324.419 112.337C327.633 110.68 330.287 113.368 332.607 115.075C332.713 115.153 330.747 115.242 329.354 115.771C326.296 116.93 324.292 117.088 323.127 113.227" fill="#90C3B0"/>
<path d="M324.419 112.337C327.633 110.68 330.287 113.368 332.607 115.075C332.713 115.153 330.747 115.242 329.354 115.771C326.296 116.93 324.292 117.088 323.127 113.227" stroke="black" stroke-opacity="0.9" stroke-width="2.4" stroke-linecap="round" stroke-linejoin="round"/>
</g>
</g>
<defs>
<filter id="filter0_d_2551_15196" x="201.945" y="70.408" width="118.015" height="49.1" filterUnits="userSpaceOnUse" color-interpolation-filters="sRGB">
<feFlood flood-opacity="0" result="BackgroundImageFix"/>
<feColorMatrix in="SourceAlpha" type="matrix" values="0 0 0 0 0 0 0 0 0 0 0 0 0 0 0 0 0 0 127 0" result="hardAlpha"/>
<feOffset dy="4"/>
<feGaussianBlur stdDeviation="2"/>
<feComposite in2="hardAlpha" operator="out"/>
<feColorMatrix type="matrix" values="0 0 0 0 0 0 0 0 0 0 0 0 0 0 0 0 0 0 0.25 0"/>
<feBlend mode="normal" in2="BackgroundImageFix" result="effect1_dropShadow_2551_15196"/>
<feBlend mode="normal" in="SourceGraphic" in2="effect1_dropShadow_2551_15196" result="shape"/>
</filter>
<clipPath id="clip0_2551_15196">
<rect width="522" height="137" fill="white"/>
</clipPath>
<clipPath id="clip1_2551_15196">
<rect width="52.9798" height="52.9798" fill="white" transform="translate(317.399 71) rotate(36.3456)"/>
</clipPath>
</defs>
</svg>
