<svg width="3021" height="3218" viewBox="0 0 3021 3218" fill="none" xmlns="http://www.w3.org/2000/svg">
<path fill-rule="evenodd" clip-rule="evenodd" d="M1510.4 2883.69C2344.57 2883.69 3020.8 2238.16 3020.8 1441.85C3020.8 645.538 2344.57 0 1510.4 0C676.228 0 0 645.538 0 1441.85C0 2238.16 676.228 2883.69 1510.4 2883.69Z" fill="url(#paint0_radial_2595_4838)"/>
<g clip-path="url(#clip0_2595_4838)">
<path fill-rule="evenodd" clip-rule="evenodd" d="M2369.36 2802.95C2339.68 2760.71 2277.12 2753.71 2236.93 2724.11C2215.75 2707.88 2193.35 2697.13 2176.9 2675.27C2203.09 2644.48 2170.69 2572.32 2164.03 2530.64C2137.61 2421.53 2113.17 2310.68 2081.75 2201.7C2136.21 2218.65 2122.02 2117.13 2114.24 2093.66C2113.7 2090.43 2109.71 2089.79 2107.26 2088.77C2107.94 2084.16 2109.83 2083.15 2104.11 2081.88C2102.2 2054.25 2110.01 2023.32 2095.89 1998.92C2079.97 1972.29 2041.93 1950.01 2010.49 1949.64C1988.41 1861.93 1984.37 1820.56 1879.75 1857.74C1882.06 1849.19 1882.78 1841.36 1878.75 1832.73C1863.02 1785.18 1843.25 1733.17 1826.06 1684.98C1806.24 1629.54 1785.75 1572.2 1759.25 1518.92C1740.8 1485.09 1683.06 1476.04 1643.92 1481.65C1634.58 1465.17 1611.05 1419.6 1581.28 1430.14C1581.06 1416.39 1580.84 1402.65 1580.66 1388.9C1580.51 1376.95 1581.77 1364.7 1577.17 1353.36C1572.31 1341.34 1562.4 1335 1550.77 1330.4C1515.55 1318.76 1475.08 1300.07 1437.92 1311.64C1405.44 1326.46 1409.23 1382.2 1393.51 1412.5C1371.49 1379.84 1333.94 1401.74 1325.99 1436.76C1235.53 1472.83 1157.77 1431.86 1151.98 1573.44C1156.97 1599.25 1161.21 1623.46 1158.84 1649.52L1156.11 1649.8C1132.95 1775.25 1124.05 1909.72 1129.65 2049.52C1128.53 2104.57 1108.47 2155.94 1089.08 2205.61C1074.81 2242.14 1060.08 2279.9 1053.1 2318.65C1045.36 2350.93 1016.89 2506.12 1080.18 2454.6C1082.61 2631.16 1239.91 2653.76 1381.57 2614.77C1531.95 2583.5 1701.24 2592.49 1795.09 2441.21C1826.93 2495.71 1837.92 2529.36 1845.91 2586.34C1854.68 2628.09 1867.42 2675.5 1890.83 2703.11C1870.67 2739.41 1860.8 2783.62 1861.77 2812.43C1862.15 2823.75 1856.98 2828.99 1864.41 2836.03C1900.1 2869.78 1979.71 2870.16 2040.24 2885.18C2081.75 2890.47 2231.84 2910.68 2254.78 2897.5C2270.78 2901.98 2252.18 2860.34 2268.17 2859.45C2273.64 2859.49 2274.38 2852.52 2280 2852.78C2315.87 2854.41 2393.23 2864.96 2374.52 2836.03L2369.36 2802.95Z" fill="white"/>
<path fill-rule="evenodd" clip-rule="evenodd" d="M2360.45 2843.83C2334 2849.55 2306.8 2847.95 2280 2850.19C2280.86 2847.94 2281.59 2845.65 2282.16 2843.31C2309.85 2839.96 2338.89 2838.36 2365.29 2829.21C2365.92 2832.19 2366.38 2835.2 2366.57 2838.24C2366.59 2838.65 2366.54 2843.19 2367.19 2842.35C2366.38 2843.4 2361.65 2843.61 2360.45 2843.83ZM2226.82 2775.16C2178.5 2759.28 2127.24 2745.58 2090.1 2708.57C2124.46 2696.1 2149.19 2711.99 2178.73 2680.08C2179.85 2680.32 2180.94 2680.66 2182 2681.07C2213.72 2735.06 2281.3 2745.34 2330.79 2776.62C2350.85 2788.31 2388.22 2819.77 2340.41 2820.48C2321.54 2823.34 2302.56 2825.46 2283.53 2826.92C2282.06 2796.52 2251.97 2783.21 2226.82 2775.16ZM2260.47 2853.02C2250.89 2866.08 2233.61 2871.24 2217.98 2869.97C2206.48 2868.4 2196.33 2864.36 2184.37 2865.23C2093.69 2861.78 2004.53 2842.99 1916.11 2823.8C1836.91 2808.93 1897.43 2750.43 1890.83 2703.1C1902 2709.92 1914.67 2714.9 1927.72 2718.56C1944.53 2765.37 1990.46 2753.15 2022.99 2730.72C2054.82 2733.25 2060.33 2722.51 2086.36 2710.08C2114.34 2760.23 2176.97 2771.42 2226.51 2790.47C2256.61 2798.59 2281.26 2821.87 2260.47 2853.02ZM2258.82 2894.86C2233.38 2902.47 2206.45 2901.15 2180.19 2899.01C2093.94 2891.53 2008.26 2876.82 1924.59 2854.56C1904.74 2849.28 1866.24 2843.15 1864.41 2818.23C1882.08 2841.41 1913.62 2844.14 1940.11 2850.12C2027.07 2867.18 2116.15 2889.2 2205.08 2884.96C2223.87 2890.31 2244.34 2886.08 2260.23 2875.67C2259.73 2882.06 2259.27 2888.46 2258.82 2894.86ZM1987.26 2728.49C1968.1 2736.51 1950.24 2734.53 1934.66 2720.36C1952.45 2724.71 1969.46 2726.5 1987.26 2728.49ZM1875.33 2656.27C1866.74 2634.83 1857.98 2570.53 1853.69 2548.11C1845.21 2505.47 1825.71 2466.35 1802.86 2428.41C1756.04 2350.68 1695.14 2277.91 1685.98 2190.06C1686.16 2184.91 1686.35 2179.76 1686.45 2174.62C1686.65 2163.91 1687.63 2152.3 1685.61 2141.79C1685.54 2141.44 1685.08 2141.51 1684.97 2141.79C1680.96 2152.32 1679.73 2164.82 1678.19 2175.99C1676.75 2186.33 1675.58 2196.63 1675.49 2207.08C1675.42 2217.01 1676.06 2227.11 1678.34 2236.8C1678.43 2237.19 1678.53 2237.58 1678.62 2237.97C1677.27 2241.83 1675.81 2245.65 1674.19 2249.41C1670.37 2258.31 1666.1 2267.06 1661.83 2275.74C1653.14 2293.38 1644.39 2310.99 1635.6 2328.58C1626.63 2346.5 1617.71 2364.44 1608.55 2382.26C1605.7 2387.81 1603.03 2393.45 1600.42 2399.13C1577.77 2433.49 1553.14 2466.52 1526.52 2497.9C1503.4 2522.91 1482.81 2552.83 1451.47 2567.99C1420.36 2583.82 1386.41 2593.75 1354.51 2607.61C1229.02 2629.59 1114.55 2629.71 1082.99 2456.94C1086.16 2453.16 1089.05 2449.12 1091.91 2445.59C1107.45 2426.38 1122.35 2406.66 1137.28 2386.98C1165.45 2349.85 1193.88 2312.45 1228.24 2280.74C1297.42 2222.01 1373.7 2169.61 1424.54 2092.6C1429.34 2086.26 1433.27 2079.37 1435.9 2071.95C1469.97 2085.54 1508.35 2088.77 1544.74 2090.2C1593.64 2092.12 1642.56 2094.14 1691.48 2095.45C1705.19 2115.07 1747.69 2116.8 1767.88 2120.09C1772.02 2120.54 1775.48 2116.9 1776.71 2113.37C1780.11 2103.6 1783.64 2093.89 1787.27 2084.22C1830.39 2092.32 1873.71 2099.27 1916.93 2106.9C1919.84 2109.32 1921 2112.65 1922.11 2116.83C1923.82 2123.25 1925.47 2129.69 1927.21 2136.1C1930.51 2148.28 1934.22 2160.37 1937.63 2172.52C1939.54 2179.3 1941.2 2186.4 1943.43 2193.26C1980.89 2352.29 2033.69 2528.65 2071.62 2678.13C2072.87 2683.66 2073.96 2690.87 2073.02 2696.87C2066.34 2702.07 2059.3 2706.29 2051.75 2709.82C1998.45 2706.09 1902.12 2713.75 1875.33 2656.27ZM1502.98 2580.78C1487.51 2582.77 1471.77 2585.36 1455.9 2588.24C1469.78 2582.02 1482.82 2574.23 1493.37 2562.99C1568.84 2486.7 1630.08 2395.34 1669.62 2295.46C1675.02 2282.03 1680.48 2268.45 1685.12 2254.67C1685.97 2255.94 1686.91 2257.16 1687.97 2258.29C1706.27 2318.66 1747.88 2373.73 1782.67 2430.7C1728.24 2531.11 1608.5 2564.68 1502.98 2580.78ZM1074.52 2465.14C1074.86 2464.88 1075.21 2464.64 1075.54 2464.38C1075.57 2464.85 1075.62 2465.31 1075.65 2465.79C1075.27 2465.57 1074.9 2465.35 1074.52 2465.14ZM1342.91 1541.58C1347.67 1555.85 1352.52 1570.09 1360.04 1583.14C1372.35 1575.15 1382.57 1564.14 1395.37 1556.97C1408.58 1549.57 1422 1551.57 1434.85 1558.8C1438.22 1560.7 1435.19 1565.88 1431.82 1563.98C1425.33 1560.33 1418.18 1557.39 1410.58 1558.08C1404.64 1558.61 1399.29 1561.35 1394.41 1564.62C1382.66 1572.48 1372.73 1582.6 1360.54 1589.9C1359.13 1590.75 1357.28 1590.19 1356.44 1588.82C1347.74 1574.63 1342.37 1558.89 1337.13 1543.18C1335.9 1539.5 1341.7 1537.94 1342.91 1541.58ZM1462.49 1885.39C1465.7 1887.52 1462.69 1892.72 1459.47 1890.57C1423.22 1866.46 1421.07 1818.53 1399.64 1784.09C1397.59 1780.8 1402.78 1777.79 1404.82 1781.06C1425.48 1814.25 1427.68 1862.24 1462.49 1885.39ZM1587.66 1635.13C1595.32 1633.12 1612.23 1631.11 1621.02 1625.33C1642.15 1697.79 1670.91 1767.81 1700.83 1837.04C1702.89 1841.76 1704.73 1848.01 1707.64 1852.96C1692.97 1857.02 1679.57 1861.72 1668.83 1866.46C1655.45 1872.32 1642.35 1879.21 1629.95 1887.15C1619.05 1893.52 1608.65 1900.62 1598.82 1908.47C1595.81 1907.84 1592.81 1907.21 1589.8 1906.57C1579.62 1904.37 1569.31 1902.02 1559.38 1898.67C1556.84 1892.44 1556.01 1885.12 1553.85 1878.98C1550.1 1865.51 1546.35 1852.03 1542.6 1838.56C1522.49 1767.07 1503.17 1695.35 1482.77 1623.94C1514.98 1638.87 1553.18 1640.95 1587.66 1635.13ZM1627.43 1574.42C1630.19 1562.76 1635.82 1548.38 1650.06 1548.81C1660.97 1549.14 1671.41 1555.54 1681.29 1560.35C1680.83 1556.83 1678.34 1553.82 1676.12 1550.81C1673.82 1547.7 1679.03 1544.71 1681.3 1547.78C1685.38 1553.3 1688.81 1558.63 1686.78 1565.64C1686.2 1567.68 1684.14 1568.2 1682.38 1567.44C1672.76 1563.27 1663.05 1556.79 1652.56 1555.07C1639.83 1552.98 1635.61 1565.91 1633.22 1576.01C1632.33 1579.77 1626.54 1578.17 1627.43 1574.42ZM1813.6 1857.59C1826.72 1860.37 1832.97 1872.15 1839.56 1882.67C1855.95 1908.82 1871.67 1935.39 1886.76 1962.31C1890.85 1969.6 1894.89 1976.92 1898.88 1984.27C1899.96 1986.08 1900.91 1988.04 1901.89 1989.97C1877.58 1987.8 1853.57 1984.22 1830.68 1975.28C1835.48 1964.41 1827.33 1962.55 1818.19 1956.23C1808.4 1950.1 1798.05 1944.47 1786.81 1941.5C1780.38 1939.8 1765.59 1939.43 1763.85 1947.97C1763.04 1945.66 1761.33 1943.63 1758.75 1942.65C1740.48 1936.64 1721.07 1934.42 1702.36 1929.96C1670.73 1923.29 1639.06 1916.89 1607.42 1910.27C1615.94 1904.83 1624.63 1899.67 1633.48 1894.83C1661.24 1880.87 1690.75 1869.91 1721.06 1863.27C1751.42 1856.6 1782.59 1854.27 1813.6 1857.59ZM1743.81 1643.54C1752.45 1688.58 1759.59 1733.96 1771.46 1778.32C1772.46 1782.06 1766.67 1783.64 1765.67 1779.92C1753.8 1735.56 1746.66 1690.18 1738.02 1645.13C1737.3 1641.35 1743.08 1639.75 1743.81 1643.54ZM1966.22 1858.13C1993 1882.71 1991.24 1923.9 2002.75 1956.26C2007.62 1973.1 2013.17 1989.76 2019.99 2005.92C2020.14 2006.28 2020.29 2006.64 2020.44 2007C1988.26 1995.4 1953.97 1993.8 1919.85 1991.38C1919.59 1990.23 1919.21 1989.17 1918.72 1988.3C1913.24 1977.76 1907.29 1967.43 1901.55 1957.02C1886.29 1929.82 1870.3 1903.04 1853.67 1876.65C1852.63 1875.01 1851.59 1873.32 1850.53 1871.63C1885.68 1860.13 1935.3 1838.55 1966.22 1858.13ZM2092.57 2015.24C2095.76 2030.33 2093.71 2046.2 2092.85 2061.56C2078.26 2042.17 2059.77 2025.62 2038.14 2014.6C2036.7 2004.9 2030.59 1996.45 2027.77 1987.03C2022.56 1973.74 2018.34 1960.16 2014.54 1946.45C2049.81 1953.8 2084.14 1979.42 2092.57 2015.24ZM1764.35 1951.86C1764.37 1951.52 1764.38 1951.19 1764.37 1950.85C1764.39 1950.84 1764.41 1950.83 1764.42 1950.82C1765.34 1949.92 1766.36 1949.23 1767.48 1948.74C1766.42 1949.75 1765.38 1950.79 1764.35 1951.86ZM1769.61 2080.83C1767.01 2087.47 1764.46 2094.13 1761.95 2100.8C1749.52 2098.67 1723.06 2093.65 1712.23 2087.93C1716.09 2088.06 1719.91 2086.05 1720.89 2081.44C1721.32 2079.4 1722 2077.49 1722.53 2075.5C1729.06 2054.21 1734.63 2032.49 1743.85 2012.08C1752.87 1990.53 1763.6 1969.59 1771.8 1947.72C1785.7 1946.84 1807.66 1964.1 1817.59 1971.14C1799.88 2006.87 1784.15 2043.52 1769.67 2080.67C1769.4 2080.67 1769.12 2080.67 1768.85 2080.68C1769.1 2080.73 1769.36 2080.78 1769.61 2080.83ZM2100.14 2104.12C2101.12 2109.43 2102.23 2114.7 2102.98 2120.06C2104.88 2141.01 2107.47 2163.08 2099.39 2183.18C2094.38 2195.49 2084.11 2185.59 2077.3 2180.77C2066.22 2173.03 2056.02 2164.15 2045.85 2155.27C2014.61 2125.88 1978.1 2100.89 1934.28 2096.76C1886.97 2090.18 1835.71 2081.96 1788.57 2080.76C1801.45 2046.57 1815.42 2012.84 1828.93 1978.86C1854 1992.92 1882.3 1998.06 1911.2 2001.34C1911.88 2001.68 1912.6 2001.98 1913.38 2002.22C1914.75 2002.5 1915.9 2002.37 1916.82 2001.95C1955.36 2006.03 1994.67 2007.63 2028.57 2023.4C2041.69 2029.5 2054 2037.72 2065.14 2049.04C2077.33 2060.72 2087.15 2074.82 2093.74 2090.38C2095.8 2095.18 2096.89 2100.17 2100.14 2104.12ZM2154.35 2556.21C2160.42 2587.73 2185.62 2657.96 2147.75 2675.44C2130.84 2684.81 2109.54 2679.41 2092.79 2687.99C2092.36 2682.61 2091.35 2677.28 2090.14 2672.34C2041.31 2512.75 1996.18 2303.83 1939.31 2144.37C1937.52 2137.89 1935.71 2131.42 1933.77 2124.99C1932.15 2119.61 1930.87 2113.88 1928.5 2108.94C1944.31 2111.85 1960.05 2115.26 1974.42 2122.72C2004.76 2135.06 2047.25 2188.65 2078.97 2204.74C2080.23 2216.58 2083.71 2228.37 2085.49 2240.06C2108 2345.53 2131.49 2450.8 2154.35 2556.21ZM2380.28 2820.19C2379.75 2817.62 2378.33 2815.96 2376.54 2815.06C2376.82 2761.28 2263.77 2743.8 2229.52 2709.55C2213.84 2698.47 2202.44 2680.17 2184.24 2673.31C2184.57 2672.85 2184.91 2672.41 2185.23 2671.94C2204.53 2640.12 2174.05 2562.79 2168.65 2529.58C2143.87 2425.77 2119.84 2321.71 2091.8 2218.72C2091.23 2216.75 2090.17 2212.85 2088.84 2208.54C2091.86 2209.27 2094.75 2209.51 2097.46 2209.16C2136.79 2200.44 2127.96 2120.88 2118.72 2092.05C2117.73 2088.65 2115.42 2086.5 2112.71 2085.49C2113.06 2083.73 2112.74 2081.86 2111.49 2080.07C2110.82 2079.11 2109.79 2078.42 2108.67 2078.07C2107.48 2050.71 2114.31 2021.3 2099.91 1996.3C2083.73 1968.96 2045.13 1946.34 2014.07 1944.75C2009.62 1928.63 2005.72 1912.35 2001.42 1896.2C1996.7 1879.29 1989.98 1861.12 1975.85 1849.78C1957.57 1833.52 1918.55 1838.48 1886.18 1849.97C1887.95 1841.5 1883.92 1833.84 1881.45 1825.9C1873.4 1802.14 1865.11 1778.46 1856.65 1754.85C1826.28 1675.25 1801.34 1592.74 1763.35 1516.42C1747.62 1490.55 1717.37 1478.89 1688.33 1476.49C1674.71 1475.12 1660.22 1474.59 1646.47 1476.2C1646.03 1475.36 1645.58 1474.53 1645.12 1473.7C1633.85 1454.17 1610.98 1417.81 1584.66 1424.05C1581.88 1405.48 1581.84 1386.45 1584.13 1367.87C1584.29 1366.55 1582.13 1365.98 1581.59 1367.18C1564.15 1406.3 1567.39 1454.44 1588.67 1491.48C1590.23 1494.05 1592.35 1495.38 1594.55 1495.76C1597.94 1534.65 1606.41 1573.03 1616.86 1610.7C1615.29 1610.76 1613.78 1611.09 1612.52 1611.65C1579.18 1623.86 1542.52 1625.85 1507.82 1618.72C1498.05 1616.66 1488.59 1613.89 1479.08 1611.07C1477.28 1604.83 1475.48 1598.61 1473.67 1592.38C1469.13 1572.7 1467.97 1553.79 1456.45 1537.94C1455.77 1536.77 1455.07 1535.61 1454.4 1534.45C1445.15 1517.67 1435.75 1500.98 1426.28 1484.33C1423.98 1481.6 1408.6 1451.29 1396.63 1432.96C1398.13 1432.92 1399.68 1432.54 1401.19 1431.78C1409.63 1427.57 1409.54 1415.36 1411.08 1407.17C1415.8 1381.72 1421.26 1356.23 1422.76 1330.34C1422.84 1329.02 1420.82 1328.46 1420.23 1329.66C1408.72 1352.48 1400.74 1376.9 1392.22 1400.95C1392.05 1401.43 1391.87 1401.92 1391.68 1402.42C1383.78 1392.46 1369.91 1390.09 1357.83 1392.77C1337.64 1398.04 1327.46 1414.45 1321.59 1433.11C1263.54 1460.82 1194.46 1432.52 1159.23 1505.83C1150.4 1527.13 1146.59 1550.03 1146.7 1573.93C1147.95 1579.36 1148.9 1584.87 1149.76 1590.33C1151.84 1603.54 1153.21 1616.86 1155.55 1630.03C1158.11 1644.42 1162.19 1658.57 1166.7 1672.46C1176.63 1703.11 1189.81 1732.54 1202.64 1762.05C1204.17 1765.56 1199 1768.61 1197.46 1765.08C1190.39 1748.83 1183.22 1732.62 1176.52 1716.21C1166.82 1692.46 1157.66 1667.95 1152.03 1642.78C1126.78 1776.65 1118.93 1913.43 1124.36 2049.49C1122.38 2143.82 1064.52 2225.66 1047.94 2317.46C1039.67 2353.64 1034.48 2390.73 1035.12 2427.9C1033.98 2445.57 1040.88 2470.81 1060.6 2470.12C1064.06 2471.52 1067.51 2472.78 1070.99 2473.98C1071.97 2474.35 1072.91 2474.67 1073.77 2474.94C1074.75 2475.24 1075.65 2475.17 1076.44 2474.88C1091.58 2624.75 1211.78 2653.56 1349.87 2626.79C1355.59 2626.89 1361.21 2625.57 1367.22 2623.88C1370.14 2623.01 1373.04 2622.1 1375.94 2621.14C1378.12 2620.62 1380.31 2620.09 1382.5 2619.54C1476.95 2600.31 1575.95 2597.14 1665.22 2557.75C1716.85 2535.16 1765.44 2499.89 1794.7 2451.05C1811.76 2481.02 1825.99 2511.74 1833.14 2544.23C1838.25 2567.66 1847.01 2632.26 1853.59 2655.37C1856.66 2666.87 1861.96 2676.55 1868.88 2684.7C1868.86 2684.74 1868.84 2684.77 1868.83 2684.81C1874.76 2688.13 1880.03 2692.53 1884.25 2697.82C1879.76 2735.94 1840.9 2772.62 1860.77 2812.43C1851.39 2834.01 1874.4 2851.57 1893.34 2856.02C1922.37 2865.31 1952.33 2872.29 1982.06 2878.91C2040.93 2889.89 2225.15 2930.46 2269.25 2898.88C2268.62 2892.14 2276.91 2870.24 2267.13 2869.92C2271.46 2865.63 2275.06 2860.63 2277.78 2855.2C2304.77 2863.98 2334.76 2860.83 2362.24 2857.59C2384.47 2858.07 2383.65 2836.42 2380.28 2820.19Z" fill="black"/>
</g>
<path fill-rule="evenodd" clip-rule="evenodd" d="M1390.82 791.042L1402.01 804.34C1395.81 808.703 1389.97 813.087 1384.47 817.492L1384.47 817.479C1409.93 800.864 1438.14 791.042 1468.6 791.042C1527.29 791.042 1646.49 841.451 1673.43 877.81C1686.8 895.855 1711.65 951.248 1724.54 1011.47C1734.9 1059.86 1750.3 1196.56 1734.9 1247.93C1715.19 1313.67 1650.32 1374.43 1583.44 1374.43C1516.56 1374.43 1412.73 1326.15 1338.83 1220.34C1335.45 1215.5 1296.65 1209.89 1268.96 1191.73L1276.23 1271.8L1281.76 1318.38L1280.54 1321.69C1260.71 1375.31 1245 1403.28 1233.4 1405.61C1221.57 1407.99 1197.47 1388.59 1161.11 1347.42L1156.47 1327.92C1144.66 1278.18 1138.76 1251.47 1138.76 1247.81L1138.77 1247.15C1138.95 1238.73 1141.85 1191.07 1141.91 1178.25L1141.91 986.047C1181.01 856.044 1218.33 791.042 1253.86 791.042H1390.82Z" fill="white"/>
<path fill-rule="evenodd" clip-rule="evenodd" d="M1298.16 746.768C1309.66 742.315 1322.98 743.156 1333.9 749.862C1355.32 748.943 1376.63 761.475 1387.8 779.768C1388.04 780.027 1388.28 780.286 1388.5 780.545L1390.87 783.304C1393.11 785.939 1395.48 788.844 1397.35 791.843C1388.17 792.053 1380.53 795.793 1375.19 803.347C1371.39 808.737 1380.11 813.859 1384 808.761L1384.14 808.575C1387.34 804.04 1392.18 802.283 1397.56 802.191C1399.11 802.165 1400.28 801.573 1401.11 800.701C1401.44 801.904 1401.73 803.119 1402 804.34C1429.12 793.795 1458.34 791.003 1487.45 793.504C1486.18 795.57 1485.11 797.784 1484.29 800.111C1483.36 802.748 1485.34 805.776 1487.91 806.48C1490.68 807.241 1493.18 805.618 1494.18 803.108L1494.28 802.863C1495.39 799.694 1497.22 796.974 1499.67 794.865C1513.38 796.722 1526.98 799.677 1540.26 803.486C1556.21 808.067 1572.01 813.659 1587.47 820.061C1584.85 821.087 1582.59 822.822 1581.01 825.718C1577.85 831.499 1586.54 836.677 1589.83 831.15L1589.95 830.946C1590.27 830.353 1590.56 829.997 1590.77 829.794L1590.84 829.725L1591.3 829.515L1592.15 829.272L1592.48 829.192C1592.76 829.127 1592.88 829.131 1593.64 829.089C1594.65 829.032 1595.66 829.038 1596.66 829.036C1599.04 829.035 1600.55 827.713 1601.23 826.022C1608.86 829.465 1616.39 833.09 1623.79 836.887L1625.54 837.797C1648.37 849.725 1670 865.39 1682.55 888.438C1683.38 889.979 1683.64 891.662 1683.43 893.267C1686.11 896.478 1688.7 899.792 1691.18 903.158C1698.77 913.463 1704.32 925.179 1709.58 936.792C1720.16 960.147 1727.28 984.136 1732.83 1009.15C1738.21 1033.25 1742.54 1057.62 1746.57 1081.98C1751.03 1109.05 1754.75 1136.36 1755.53 1163.82C1756.9 1212.77 1747.33 1262 1719.85 1303.21C1695.33 1339.98 1658.41 1369.17 1614.62 1378.52C1570.09 1388.02 1522.96 1378.75 1487.87 1349.08C1482.21 1344.3 1482.98 1334.65 1487.87 1329.76C1493.39 1324.25 1501.55 1325.01 1507.18 1329.76C1540.23 1357.71 1588.34 1362.02 1628.16 1347.78C1664.98 1334.6 1693.83 1304.21 1711.52 1270.07C1733.12 1228.43 1736.76 1180.61 1733.44 1134.55C1731.63 1109.25 1727.86 1084.16 1723.98 1059.11L1721.63 1044.03C1719.08 1027.7 1716.39 1011.39 1712.88 995.218L1712.06 991.452C1707.78 971.957 1702.76 951.961 1695 933.633C1690.94 924.014 1686.05 914.745 1681.04 905.592C1680.06 903.818 1679.07 902.019 1678.04 900.206C1676.67 900.685 1675.1 900.763 1673.46 900.245C1659.31 895.843 1644.77 892.892 1629.98 891.908C1623.23 891.457 1616.48 891.387 1609.74 891.65C1598.2 890.978 1586.33 891.993 1575.33 895.533C1574.26 894.609 1573.17 893.706 1572.08 892.802C1571.78 892.779 1571.49 892.748 1571.19 892.69C1568.39 892.138 1566.41 890.144 1565.23 887.626C1565.16 887.493 1565.11 887.36 1565.05 887.226C1563.65 886.15 1562.23 885.091 1560.8 884.047C1557.31 884.952 1554.25 882.048 1553.42 878.866C1552.65 878.341 1551.86 877.834 1551.07 877.32C1550.46 877.47 1549.85 877.594 1549.25 877.638C1546.68 877.823 1544.2 877.43 1541.92 876.204C1539.04 874.652 1537.2 872.148 1535.97 869.304C1531.61 869.572 1527.19 868.157 1523.3 865.598C1520.13 863.523 1517.71 860.658 1515.3 857.798C1485.94 844.703 1454.02 836.972 1422.03 834.991C1418.88 835.597 1415.75 836.318 1412.66 837.157C1411.93 837.357 1410.89 837.748 1409.7 838.216C1416.83 837.354 1424.05 837.269 1431.38 838.324C1466.15 843.351 1493.22 869.38 1516.53 893.951C1522.07 892.831 1527.67 900.009 1522.54 904.763L1482.54 941.829C1483.53 945.975 1478.77 950.061 1474.61 949.065C1467.62 947.387 1460.63 945.756 1453.63 944.152C1446.33 947.685 1437.15 947.08 1430.52 941.959C1430.22 941.721 1429.55 941.34 1428.97 940.962C1428.42 941.411 1427.69 941.862 1427.4 942.053C1425.04 943.612 1422.18 944.07 1419.42 943.633C1416.59 943.184 1414.04 941.748 1411.84 939.96C1410.44 938.822 1407.17 934.069 1405.35 933.72L1405.17 933.699C1406.39 933.734 1402.49 937.358 1401.44 938.107C1399 939.851 1396.29 940.768 1393.25 940.434C1387.95 939.851 1383.4 935.021 1380.8 930.561L1380.61 930.218L1380.53 930.006L1380.46 930.236C1380.45 930.276 1380.43 930.32 1380.41 930.368C1380.02 931.418 1378.81 932.612 1377.98 933.346C1375.62 935.434 1372.69 936.352 1369.57 935.807C1366.93 935.347 1364.7 933.751 1362.92 931.818L1362.64 931.51C1362.11 930.914 1358.63 926.236 1359.18 925.115L1359.24 925.02L1359.07 924.984C1356.95 925.504 1355.17 924.983 1353.87 923.891C1346.6 922.299 1339.43 920.444 1332.49 918.085C1331.94 919.612 1331.41 921.14 1330.89 922.681C1334.68 925.024 1338.19 928.364 1341.42 930.746C1347.53 935.251 1353.64 939.757 1359.74 944.275L1383.9 962.097L1386.66 961.355C1390.19 960.407 1393.22 962.463 1394.51 965.604L1394.62 965.876C1395.13 967.252 1395.75 968.524 1396.48 969.743C1402.52 969.502 1407.63 973.21 1409.29 978.528C1410.78 978.494 1412.29 978.551 1413.83 978.721C1418.05 979.184 1420.89 982.317 1420.13 986.619L1420.07 986.915L1419.97 987.394C1422.41 988.432 1424.18 990.437 1424.58 993.469C1425.23 994.454 1425.76 995.526 1426.1 996.72C1427.86 1002.91 1424.43 1010.57 1422.6 1016.5L1422.46 1016.97C1421.29 1020.87 1420.07 1024.75 1418.84 1028.63L1415.78 1038.26C1407.29 1065.1 1399.02 1093.4 1405.89 1121.53C1407.35 1127.49 1399.74 1130.18 1396.44 1125.52C1388.43 1114.24 1379.79 1103.61 1370.71 1093.4L1370.27 1093.33C1363.91 1092.05 1361.44 1087.56 1358.52 1082.98C1356.8 1083.49 1354.96 1083.61 1353.17 1083.26C1350.58 1082.76 1348.27 1081.29 1346.44 1079.42C1344.89 1077.84 1343.47 1073.78 1341.63 1072.78C1339.34 1071.52 1334.74 1073.32 1332 1072.91C1329.77 1072.58 1327.7 1071.82 1325.68 1070.86C1321.98 1075.91 1319.52 1081.85 1318.92 1088.25C1318.68 1090.68 1317.96 1092.74 1316.91 1094.45C1320.77 1094.31 1324.64 1094.58 1328.46 1095.29C1342.6 1097.92 1352.73 1106.65 1358.43 1119.64C1358.67 1120.21 1357.94 1120.68 1357.6 1120.14C1349.15 1107.13 1330.75 1106.46 1317.39 1111.05C1303.2 1115.92 1295.24 1128.41 1292.4 1142.66C1289.3 1158.29 1293.28 1175.13 1301.79 1188.44C1305.74 1194.63 1311.12 1200.27 1318.28 1202.55C1326.79 1205.26 1334.65 1200.42 1343.36 1202.91C1349.29 1204.61 1351.9 1210.35 1350.83 1216.08C1350.4 1218.33 1349.61 1220.3 1348.55 1222.01C1351.68 1228.22 1354.58 1234.62 1358.27 1240.5C1363.97 1249.57 1370.86 1257.08 1378.37 1264.65C1386.12 1272.47 1394.02 1280.14 1402.32 1287.39C1410.27 1294.34 1419.38 1299.29 1427.72 1305.66C1433.57 1310.12 1436.47 1316.39 1433.58 1323.56C1431.2 1329.49 1423.17 1334.54 1416.67 1331.86C1404.23 1326.73 1393.34 1318.01 1383.43 1309.02C1374.24 1300.68 1366.23 1290.72 1360.19 1279.89C1354.49 1269.69 1350.28 1258.1 1346.74 1246.94L1346.3 1245.55C1344.63 1240.24 1342.87 1234.27 1341.73 1228.25C1334.91 1231.98 1325.65 1232.52 1318.35 1231.51C1306.55 1229.89 1295.79 1223.95 1287.66 1215.29C1283.87 1211.26 1280.53 1206.66 1277.63 1201.68C1277.9 1204.71 1278.05 1207.65 1278.22 1210.32C1284.98 1217.72 1287.69 1228.41 1285.29 1238.15C1290.95 1243.97 1292.53 1252.71 1289.58 1260.15C1295.77 1266.29 1295.54 1276.06 1292.86 1284.93C1300.18 1293.11 1300.87 1305.85 1295.16 1315.08L1294.99 1315.74C1300.75 1325.39 1299.45 1337.87 1292.23 1346.39C1297.16 1355.97 1296.4 1368.84 1284.06 1372.56C1279.57 1373.91 1275.21 1372.76 1271.95 1370.24C1274.92 1385.05 1276.26 1400.08 1272.29 1414.96C1270.7 1420.86 1264.93 1425.17 1258.86 1425.17C1253.78 1425.17 1250.09 1422.62 1247.55 1418.87C1247.84 1426.34 1247.39 1433.85 1245.8 1441.42C1244.84 1446 1240.59 1449.56 1236.09 1450.67C1237.72 1452.5 1238.36 1455.15 1236.81 1457.91C1230.2 1469.6 1214.24 1464.75 1213.17 1453.55C1208.66 1450.19 1206.57 1444.66 1205.7 1438.7C1204.43 1429.99 1203.98 1421.44 1202.54 1412.84L1202 1413.36L1201.71 1413.6L1201.62 1414.22C1200.8 1418.47 1198.41 1421.44 1195.3 1423.22C1195.98 1430.62 1194.72 1438.17 1190.03 1443.79C1186.89 1447.54 1181.56 1449.02 1176.99 1448.2C1176.7 1448.22 1176.41 1448.22 1176.1 1448.18C1165.75 1446.8 1159.76 1436.98 1162.49 1427.97C1158.32 1422.86 1156.56 1416.38 1157.8 1409.97C1149.73 1404.63 1149.89 1392.9 1152.69 1383.47C1144.23 1376.8 1141.05 1364.32 1145.3 1354.41C1137.68 1344.94 1136.62 1331.75 1141.8 1320.98C1133.41 1314.09 1133.46 1300.79 1141.77 1293.74C1137.35 1284.95 1134.68 1274.42 1139.1 1266.37C1135.98 1262.92 1134.26 1258.01 1134.63 1253.27C1135.16 1246.3 1139.77 1241.48 1145.49 1238.27L1145.89 1236.09C1147.23 1236.26 1148.66 1235.88 1149.92 1234.67C1151.17 1233.47 1152.46 1232.5 1153.79 1231.71C1155.29 1231.69 1156.59 1231.02 1157.5 1229.98C1159.99 1229.14 1162.68 1228.76 1165.65 1228.73C1172.07 1228.66 1172.3 1219.06 1166.32 1218.43C1165.38 1217.48 1164.08 1216.88 1162.67 1216.88L1161.56 1216.89C1158.98 1216.91 1156.38 1217.07 1153.98 1218.1C1152.43 1218.76 1151.23 1219.76 1150.35 1220.99C1150.18 1222.85 1149.17 1224.7 1146.99 1226.23C1144.46 1227.99 1141.01 1228.2 1138.3 1226.6C1134.52 1224.37 1134.48 1220.87 1134.92 1217.08C1135.87 1208.77 1131.1 1200.96 1132.23 1192.47C1132.74 1188.71 1133.99 1185.47 1136.03 1182.85C1131.73 1176.41 1130.97 1168.1 1134.28 1161.04C1127.38 1153.62 1126.19 1142.18 1130.59 1133.25C1130.65 1133.04 1130.7 1132.82 1130.77 1132.6C1131.27 1131.09 1131.95 1129.72 1132.71 1128.41C1128.85 1121.72 1128.87 1113.51 1132.8 1106.85C1126.85 1099.93 1126.67 1088.9 1131.95 1081.43C1131.98 1080.82 1132.05 1080.2 1132.1 1079.58C1129.67 1073.28 1130.26 1066.12 1133.33 1060.26C1132.24 1057.73 1131.39 1055.01 1130.85 1052.1C1129.46 1044.62 1130.17 1037.35 1132.25 1030.04C1132.58 1028.89 1132.96 1027.74 1133.36 1026.59C1133.43 1021.59 1133.62 1016.61 1133.87 1011.64C1132.88 1007.43 1132.72 1002.81 1132.7 998.514L1132.7 995.731C1132.65 988.648 1132.15 978.277 1136.63 972.256C1133.76 965.751 1134.94 957.556 1139.74 952.401C1136.37 946.608 1135.66 939.494 1139.05 933.066C1139.59 932.032 1140.22 931.069 1140.91 930.157C1140.63 924.27 1141.87 918.2 1145.01 912.35C1147.05 908.541 1150.09 905.243 1153.71 902.605C1153.65 901.824 1153.61 901.045 1153.62 900.277C1153.69 896.852 1154.45 893.412 1155.73 890.203C1153.43 886.285 1152.37 881.869 1153.71 877.11C1155.21 871.724 1159.16 867.09 1164.09 864.475C1164.49 859.397 1165.28 854.349 1166.42 849.369C1163.39 842.621 1165.8 833.714 1172.65 829.738C1171.76 824.345 1172.56 818.752 1176.49 814.539C1177.97 812.943 1179.73 811.732 1181.61 810.93C1180.71 805.506 1181.73 799.865 1185.48 795.449C1188.54 791.843 1193.08 789.653 1197.7 789.33C1199.48 779.898 1208.49 772.845 1218 773.406C1219.19 769.253 1222.03 765.632 1226.43 763.796C1227.56 763.326 1228.7 763.017 1229.83 762.845C1237.57 755.046 1249.08 749.76 1259.04 747.053C1269.04 744.349 1279.17 744.087 1287.75 747.231L1288.38 747.467L1289.08 747.377C1292.11 747.04 1295.13 746.846 1298.16 746.768ZM1222.21 1385.97C1219.54 1385.14 1216.56 1386.95 1215.84 1389.58C1215.07 1392.36 1216.77 1395.12 1219.45 1395.95C1222.79 1397 1226.3 1397.26 1229.78 1397.26C1232.58 1397.26 1234.96 1394.88 1234.96 1392.08C1234.96 1389.27 1232.59 1386.9 1229.78 1386.9C1226.95 1386.9 1224.86 1386.8 1222.21 1385.97ZM1198.46 1330.97C1194.47 1330.98 1191.05 1331.93 1188.09 1334.73C1186.11 1336.59 1186.06 1340.2 1188.09 1342.05C1190.13 1343.93 1193.09 1344.04 1195.19 1342.25L1195.59 1341.89C1195.64 1341.84 1195.68 1341.81 1195.71 1341.78C1195.88 1341.67 1196.05 1341.56 1196.23 1341.47L1195.89 1341.69C1195.63 1341.87 1196.23 1341.57 1196.56 1341.43L1196.67 1341.38L1196.7 1341.38L1196.97 1341.36C1197.47 1341.33 1197.96 1341.33 1198.46 1341.33C1201.17 1341.33 1203.76 1338.95 1203.64 1336.15C1203.51 1333.35 1201.36 1330.97 1198.46 1330.97ZM1273.78 1298.12C1279.39 1294.68 1274.38 1285.89 1268.76 1289.06L1268.55 1289.18C1265.67 1290.94 1262.13 1290.7 1258.86 1290.71C1252.2 1290.71 1252.19 1301.07 1258.86 1301.06L1259.96 1301.06C1264.75 1301.02 1269.59 1300.69 1273.78 1298.12ZM1229.67 1260.32C1225.43 1259.52 1220.69 1258.81 1216.23 1259.29L1215.49 1259.39H1214.12C1212.93 1259.39 1211.77 1259.87 1210.85 1260.62C1209.38 1261.23 1208 1262.04 1206.73 1263.14C1201.68 1267.51 1209.04 1274.81 1214.05 1270.46C1214.33 1270.22 1214.66 1270.02 1215.01 1269.86L1215.29 1269.74H1220.83C1221.33 1269.74 1221.82 1269.64 1222.3 1269.49C1224.1 1269.73 1225.78 1270.09 1226.91 1270.3C1233.43 1271.53 1236.22 1261.55 1229.67 1260.32ZM1224.94 1160.92C1216.82 1157.15 1207.83 1157.18 1200.32 1162.41C1194.95 1166.15 1199.94 1174.96 1205.35 1171.48L1205.55 1171.35C1206.22 1170.88 1206.91 1170.49 1207.61 1170.13C1211.42 1171.23 1215.26 1171.29 1218.94 1169.93L1219.42 1169.75L1219.71 1169.86C1225.72 1172.64 1230.98 1163.72 1224.94 1160.92ZM1313.33 1144.69C1305.13 1143.77 1305.06 1130.82 1313.33 1131.74C1330.78 1133.7 1346.62 1141.46 1358.22 1154.78C1363.61 1160.98 1354.73 1170.05 1349.23 1164.13L1349.06 1163.94C1339.84 1153.34 1327.39 1146.27 1313.33 1144.69ZM1221.46 1078.18C1219.64 1077.98 1217.82 1077.88 1216.03 1077.97C1211.73 1078.18 1206.49 1081.05 1208.38 1086.23C1209.89 1090.38 1214.85 1090.55 1217.3 1088.33C1218.32 1088.36 1219.34 1088.42 1220.35 1088.53C1223.06 1088.81 1225.74 1089.32 1228.4 1089.85C1234.91 1091.13 1237.7 1081.15 1231.16 1079.86L1228.26 1079.29C1227.29 1079.1 1226.3 1078.91 1225.31 1078.74C1224.72 1078.44 1224.09 1078.24 1223.41 1078.19L1223.07 1078.18H1221.46ZM1170.01 997.831L1169.4 997.749C1160.66 996.631 1146.62 997.66 1145.56 1008.79C1144.97 1014.96 1153.88 1015.34 1155.63 1010.07C1162.09 1008.91 1168.6 1008.68 1175.02 1009.39C1177.46 1006.91 1177.48 1002.13 1173.41 1000.94C1172.84 999.39 1171.64 998.065 1170.01 997.831ZM1369.9 979.029C1367.88 977.174 1364.57 976.928 1362.58 979.029C1361.44 980.238 1360.48 981.582 1359.72 983.06L1359.22 984.06C1359.13 984.226 1359.04 984.39 1358.95 984.552C1358.78 984.854 1358.59 985.141 1358.41 985.434L1358.28 985.557C1358.24 985.607 1358.18 985.667 1358.11 985.74C1356.24 987.709 1356.01 991.136 1358.11 993.064C1360.13 994.919 1363.44 995.165 1365.43 993.064C1366.58 991.855 1367.53 990.512 1368.29 989.033L1368.79 988.036C1368.88 987.87 1368.97 987.706 1369.06 987.542C1369.23 987.24 1369.42 986.952 1369.6 986.66L1369.81 986.454C1369.84 986.424 1369.87 986.39 1369.9 986.353C1371.77 984.385 1372 980.957 1369.9 979.029ZM1263.71 965.543C1256.42 960.372 1247.74 960.131 1241.03 966.352C1236.19 970.843 1243.3 978.036 1248.18 973.83L1248.36 973.676C1248.53 973.51 1248.71 973.365 1248.89 973.227C1249.77 973.972 1250.88 974.445 1252.15 974.446C1252.48 974.447 1252.81 974.446 1253.15 974.454L1253.64 974.471L1253.91 974.493L1253.94 974.499L1254.18 974.599C1254.6 974.79 1255.19 975.087 1254.38 974.582C1254.56 974.677 1254.73 974.788 1254.9 974.897L1255.2 975.167C1257.15 977.013 1260.53 977.257 1262.47 975.215C1265.9 974.055 1267.72 968.382 1263.71 965.543ZM1335.05 948.578L1335.18 948.536C1341.58 946.709 1338.86 936.713 1332.43 938.548C1325.6 940.496 1322.35 946.846 1320.98 953.35C1320.41 956.086 1321.78 958.948 1324.6 959.721C1327.17 960.427 1330.39 958.854 1330.97 956.104C1331.37 954.171 1331.84 952.531 1332.58 951.008L1333.03 950.138C1333.24 949.742 1333.31 949.677 1334.02 949.06C1334.13 948.956 1334.67 948.706 1335.05 948.578ZM1226.68 896.415L1225.68 896.188C1219.45 894.822 1211.18 894.11 1207.41 900.288C1203.98 905.917 1212.64 911.041 1216.2 905.72C1216.25 905.719 1216.32 905.72 1216.39 905.725L1216.51 905.738L1218.1 905.609C1220.09 905.594 1222 905.946 1223.93 906.403C1230.41 907.938 1233.18 897.953 1226.68 896.415ZM1450.44 856.601C1455.16 851.882 1447.84 844.556 1443.12 849.278C1439.38 853.011 1435.78 856.769 1433.36 861.511C1432.09 863.999 1432.71 867.13 1435.22 868.597C1437.53 869.95 1441.02 869.238 1442.3 866.739C1444.4 862.628 1447.06 859.985 1450.44 856.601ZM1390.89 844.214C1386.23 846.974 1383.21 851.521 1381.38 856.783C1380.46 859.424 1382.43 862.447 1385 863.153C1387.76 863.911 1390.28 862.294 1391.28 859.782L1391.37 859.536C1391.86 858.128 1392.64 856.466 1393.61 855.212C1394.44 854.141 1395.73 853.069 1396.7 852.713C1399.04 851.856 1400.69 849.741 1400.47 847.27C1396.64 848.597 1393.07 847.001 1390.89 844.214ZM1251.34 821.688C1246.64 817.322 1240.33 816.744 1234.62 819.386C1232.08 820.562 1231.45 824.222 1232.77 826.472C1234.29 829.075 1237.3 829.51 1239.85 828.329C1239.2 828.632 1240.38 828.232 1240.89 828.086C1240.95 828.116 1241.81 828.077 1242.1 828.082L1242.46 828.104C1242.46 828.106 1242.37 828.105 1242.2 828.099C1242.44 828.155 1242.69 828.222 1242.93 828.299L1243.24 828.406C1243.09 828.374 1243.78 828.83 1243.98 828.981L1244.01 829.01C1248.9 833.54 1256.24 826.233 1251.34 821.688Z" fill="black"/>
<path fill-rule="evenodd" clip-rule="evenodd" d="M1760.91 1066.97C1759.95 1066.81 1758.98 1066.66 1758.01 1066.52C1757.26 1066.09 1756.37 1065.76 1755.34 1065.56C1752.98 1064.96 1750.64 1064.56 1748.31 1064.34C1714.79 1056.8 1637.25 1067.51 1634.05 1096.11C1623.38 1099.67 1614.14 1096.48 1601.77 1096.8C1592.35 1057.44 1429.55 1063 1421.72 1086.73C1421.69 1086.72 1421.67 1086.71 1421.63 1086.7C1414.11 1084.37 1403.02 1084.93 1394.41 1084.57C1376.02 1084.18 1357.62 1085.82 1339.63 1089.7C1305.94 1095.05 1259.97 1101.32 1283.4 1143.38C1283.4 1143.39 1283.41 1143.4 1283.41 1143.4L1283.42 1143.4C1287.45 1147.54 1294.31 1144.21 1294.56 1138.6C1286.68 1118.68 1304.47 1116.28 1318.16 1110.56C1352.22 1098.32 1386.9 1096.62 1422.12 1100.41C1424.77 1103.53 1428.79 1106.25 1433.04 1107.67C1456.6 1111.58 1444.18 1129.05 1459.07 1131.59C1456.34 1192.49 1530.28 1225.74 1573.12 1185.7C1590.22 1168.98 1594.3 1144.21 1598.27 1121.88C1600.36 1121.4 1601.7 1120.26 1602.47 1118.74C1607.52 1113.71 1610.69 1109.06 1620.66 1107.67C1630.63 1106.29 1638.31 1109.07 1639.35 1109.91C1639.61 1110.44 1639.89 1110.97 1640.22 1111.5C1640.67 1112.29 1641.29 1112.92 1642 1113.41C1632.15 1174.06 1679.23 1212.41 1726.76 1180.95C1747.41 1161.53 1751.77 1131.79 1752.64 1105.24C1755.43 1103.55 1757.21 1100.28 1756.24 1096.16C1754.9 1090.49 1758.03 1085.57 1763.02 1083.11C1769.5 1079.9 1768.36 1068.2 1760.91 1066.97ZM1556.69 1095.74C1550.79 1094.44 1548.27 1103.54 1554.19 1104.84C1558.38 1105.76 1561.93 1107.88 1564.33 1111.46L1564.58 1111.85C1567.8 1116.97 1575.95 1112.24 1572.7 1107.08C1569.06 1101.28 1563.39 1097.21 1556.69 1095.74ZM1729.48 1090.1C1727.4 1088.64 1724.25 1089.72 1723.04 1091.79C1721.71 1094.07 1722.58 1096.61 1724.53 1098.1L1724.73 1098.25C1726.52 1099.51 1728.26 1101.77 1728.48 1104.08L1728.49 1104.37C1728.73 1110.42 1738.14 1110.45 1737.9 1104.37C1737.67 1098.42 1734.22 1093.45 1729.48 1090.1Z" fill="black"/>
<path fill-rule="evenodd" clip-rule="evenodd" d="M1650.23 1275.24C1645.04 1282.75 1635.63 1288.51 1625.09 1291.27C1615.05 1293.89 1603.95 1293.78 1594.37 1289.74L1593.55 1289.38C1586.39 1286.09 1579.52 1279.45 1576.91 1272.51C1575.87 1269.76 1575.52 1266.96 1576.23 1264.34C1576.87 1261.99 1578.37 1259.83 1580.86 1257.96C1581.64 1257.38 1582.69 1257.34 1583.69 1257.53C1584.94 1257.78 1586.16 1258.42 1586.9 1259.29C1591 1264.11 1596.94 1268.81 1603.98 1268.73C1609.41 1268.67 1613.84 1266.29 1618.14 1263.61L1621.16 1261.7C1624.08 1259.86 1627.03 1258.13 1630.38 1257.34C1636.36 1255.93 1643.63 1258.51 1648.05 1262.77C1649.98 1264.63 1651.38 1266.82 1651.76 1269.17C1652.08 1271.15 1651.63 1273.21 1650.23 1275.24ZM1619.11 1143.77C1631 1151.77 1649.12 1170.41 1636.32 1190.24C1621.27 1207.72 1599.59 1187.68 1588.9 1178.61C1579 1171.59 1567.87 1189.66 1577.06 1197.86C1654.26 1261.1 1685.59 1145.86 1625.12 1134.36C1618.46 1133.1 1615.99 1141.29 1619.11 1143.77ZM1484.95 1020.85L1488.37 1019.82L1491.85 1018.78L1494.2 1018.09C1510.38 1013.4 1528.23 1009.28 1544.28 1011.29C1550.13 1012.03 1554.88 1015.67 1555.71 1022.45C1556.4 1028.18 1553.06 1035.56 1547.37 1036.58C1528.53 1039.95 1509.23 1038.86 1490.3 1042.34C1480.87 1044.07 1471.52 1046.21 1462.13 1048.15C1454.98 1049.62 1447.6 1050.14 1440.4 1051.33L1442.06 1051.59C1442.64 1051.67 1442.49 1052.75 1441.92 1052.71C1439.55 1052.45 1437.17 1052.41 1434.79 1052.59L1433.77 1052.68C1432.21 1052.93 1431.29 1050.87 1432.68 1049.83C1441.46 1043.24 1448.9 1036.1 1458.73 1031.25C1467.23 1027.05 1475.98 1023.59 1484.95 1020.85ZM1632.25 1010.75C1644.69 996.836 1671.15 1002.18 1685.95 1008.55C1694.4 1012.18 1702.43 1016.78 1709.12 1023.65L1709.77 1024.33L1710.77 1025.4C1715.29 1030.29 1720.33 1037.02 1719.61 1044.07C1719.5 1045.14 1718.97 1046.37 1717.87 1046.59C1711.95 1047.75 1706.12 1044.29 1700.65 1042.21L1697.02 1040.83C1691.58 1038.78 1686.1 1036.82 1680.49 1035.4C1673.51 1033.65 1666.39 1032.63 1659.23 1032.73C1651.98 1032.84 1644.2 1035.1 1637.3 1031.92C1629.61 1028.37 1625.62 1018.17 1632.25 1010.75ZM1509.35 1122.97C1506.17 1126.56 1501.98 1128.58 1496.62 1127.38C1492.42 1126.44 1484.44 1121.77 1478.06 1114.59C1473.7 1109.68 1470.05 1103.54 1469.06 1096.42C1468.83 1094.77 1468.04 1093.71 1467 1093.04C1466.18 1092.52 1465.09 1092.25 1463.91 1092.39C1462.91 1092.5 1461.85 1092.9 1461.03 1093.43C1459.46 1094.44 1458.82 1095.88 1458.69 1096.95C1457.44 1107.31 1461.05 1117.58 1466.69 1126.25C1474.3 1137.94 1485.47 1146.51 1492.03 1148.51C1503.26 1151.95 1515.1 1149.21 1523.83 1140.56C1530.81 1133.65 1534.39 1124.64 1537.71 1115.37L1538.35 1113.57C1539.09 1111.47 1539.83 1109.38 1540.62 1107.32C1542.19 1103.18 1541.69 1099.6 1540.16 1096.81C1538.47 1093.72 1535.35 1091.55 1531.88 1090.88C1528.67 1090.27 1525.23 1090.94 1522.52 1093.11C1520.23 1094.94 1518.39 1097.85 1517.73 1102.14C1516.66 1109.12 1514.19 1117.13 1509.82 1122.41L1509.35 1122.97ZM1701.98 1082.57C1699.37 1081.06 1697.32 1080.6 1694.41 1081.57C1692.81 1082.1 1691.22 1083.12 1689.98 1084.5C1688.75 1085.86 1687.86 1087.55 1687.51 1089.43C1686.66 1094.07 1684.37 1098.41 1681.1 1101.24C1678.31 1103.66 1674.78 1104.95 1670.87 1104.22C1666.65 1103.44 1662.63 1100.45 1659.86 1096.92C1659.08 1095.93 1658.45 1094.83 1657.84 1093.72L1657.47 1093.06C1656.11 1090.57 1654.78 1088.25 1652.9 1086.42C1652.19 1085.72 1651.11 1085.24 1650.07 1085.24C1649.65 1085.24 1649.22 1085.32 1648.81 1085.46C1644.61 1090.12 1643.8 1093.66 1643.94 1097.17C1644.08 1100.85 1645.39 1104.58 1647.51 1108.06C1652.48 1116.22 1661.92 1122.9 1668.29 1124.42C1677.02 1126.49 1685.68 1124 1692.63 1118.61C1699.78 1113.06 1705.08 1104.45 1706.73 1094.74C1707.13 1092.41 1706.96 1089.88 1706.15 1087.69C1705.37 1085.56 1703.99 1083.73 1701.98 1082.57Z" fill="black"/>
<defs>
<radialGradient id="paint0_radial_2595_4838" cx="0" cy="0" r="1" gradientUnits="userSpaceOnUse" gradientTransform="translate(1510.4 1441.85) rotate(90) scale(1441.85 1510.4)">
<stop offset="0.25" stop-color="#5A7D9A"/>
<stop offset="0.5" stop-color="#5A7D9A" stop-opacity="0.75"/>
<stop offset="0.75375" stop-color="#3C5467" stop-opacity="0.375"/>
<stop offset="1" stop-color="#1E2A34" stop-opacity="0"/>
</radialGradient>
<clipPath id="clip0_2595_4838">
<rect width="1534" height="1910" fill="white" transform="translate(861 1308)"/>
</clipPath>
</defs>
</svg>
